<svg xmlns="http://www.w3.org/2000/svg" width="48" height="78" viewBox="0 0 48 78">
<rect x="12.00" y="8.00" width="11.00" height="11.00" rx="1.54" fill="#FFFFFF" stroke="#E53935" stroke-width="1.15"/><rect x="13.00" y="9.00" width="9.00" height="3.08" rx="0.77" fill="rgba(255,255,255,0.28)"/>
<rect x="24.20" y="8.00" width="11.00" height="11.00" rx="1.54" fill="#FFFFFF" stroke="#E53935" stroke-width="1.15"/><rect x="25.20" y="9.00" width="9.00" height="3.08" rx="0.77" fill="rgba(255,255,255,0.28)"/>
<rect x="12.00" y="20.20" width="11.00" height="11.00" rx="1.54" fill="#FFFFFF" stroke="#E53935" stroke-width="1.15"/><rect x="13.00" y="21.20" width="9.00" height="3.08" rx="0.77" fill="rgba(255,255,255,0.28)"/>
<rect x="24.20" y="20.20" width="11.00" height="11.00" rx="1.54" fill="#FFFFFF" stroke="#E53935" stroke-width="1.15"/><rect x="25.20" y="21.20" width="9.00" height="3.08" rx="0.77" fill="rgba(255,255,255,0.28)"/>
<rect x="12.00" y="32.40" width="11.00" height="11.00" rx="1.54" fill="#FFFFFF" stroke="#E53935" stroke-width="1.15"/><rect x="13.00" y="33.40" width="9.00" height="3.08" rx="0.77" fill="rgba(255,255,255,0.28)"/>
<rect x="24.20" y="32.40" width="11.00" height="11.00" rx="1.54" fill="#FFFFFF" stroke="#E53935" stroke-width="1.15"/><rect x="25.20" y="33.40" width="9.00" height="3.08" rx="0.77" fill="rgba(255,255,255,0.28)"/>
<rect x="12.00" y="44.60" width="11.00" height="11.00" rx="1.54" fill="#FFFFFF" stroke="#E53935" stroke-width="1.15"/><rect x="13.00" y="45.60" width="9.00" height="3.08" rx="0.77" fill="rgba(255,255,255,0.28)"/>
<rect x="24.20" y="44.60" width="11.00" height="11.00" rx="1.54" fill="#FFFFFF" stroke="#E53935" stroke-width="1.15"/><rect x="25.20" y="45.60" width="9.00" height="3.08" rx="0.77" fill="rgba(255,255,255,0.28)"/>
<rect x="12.00" y="56.80" width="11.00" height="11.00" rx="1.54" fill="#FFFFFF" stroke="#E53935" stroke-width="1.15"/><rect x="13.00" y="57.80" width="9.00" height="3.08" rx="0.77" fill="rgba(255,255,255,0.28)"/>
<rect x="24.20" y="56.80" width="11.00" height="11.00" rx="1.54" fill="#FFFFFF" stroke="#E53935" stroke-width="1.15"/><rect x="25.20" y="57.80" width="9.00" height="3.08" rx="0.77" fill="rgba(255,255,255,0.28)"/><text x="18.6" y="14.8" text-anchor="middle" font-size="8" fill="#E53935">★</text><text x="28.6" y="14.8" text-anchor="middle" font-size="8" fill="#E53935">★</text><rect x="18.6" y="15.9" width="10" height="2.4" rx="1.2" fill="#F472B6"/><line x1="12" y1="32.4" x2="3" y2="28.74" stroke="#C62828" stroke-width="2.3" stroke-linecap="round"/><line x1="35.2" y1="32.4" x2="43.2" y2="28.74" stroke="#C62828" stroke-width="2.3" stroke-linecap="round"/><circle cx="2" cy="27.52" r="3.2" fill="#C62828"/><circle cx="44.2" cy="27.52" r="3.2" fill="#C62828"/><line x1="15.85" y1="67.8" x2="15.85" y2="73.8" stroke="#C62828" stroke-width="2.1" stroke-linecap="round"/><line x1="31.35" y1="67.8" x2="31.35" y2="73.8" stroke="#C62828" stroke-width="2.1" stroke-linecap="round"/>
</svg>
