<svg xmlns="http://www.w3.org/2000/svg" width="54" height="68" viewBox="0 0 54 68">
<rect x="6.00" y="49.00" width="8.20" height="8.20" rx="1.15" fill="#5B9CF5" stroke="#2B5FAE" stroke-width="1.15"/><rect x="7.00" y="50.00" width="6.20" height="2.30" rx="0.57" fill="rgba(255,255,255,0.28)"/>
<rect x="15.25" y="49.00" width="8.20" height="8.20" rx="1.15" fill="#5B9CF5" stroke="#2B5FAE" stroke-width="1.15"/><rect x="16.25" y="50.00" width="6.20" height="2.30" rx="0.57" fill="rgba(255,255,255,0.28)"/>
<rect x="15.25" y="39.75" width="8.20" height="8.20" rx="1.15" fill="#5B9CF5" stroke="#2B5FAE" stroke-width="1.15"/><rect x="16.25" y="40.75" width="6.20" height="2.30" rx="0.57" fill="rgba(255,255,255,0.28)"/>
<rect x="24.50" y="49.00" width="8.20" height="8.20" rx="1.15" fill="#5B9CF5" stroke="#2B5FAE" stroke-width="1.15"/><rect x="25.50" y="50.00" width="6.20" height="2.30" rx="0.57" fill="rgba(255,255,255,0.28)"/>
<rect x="24.50" y="39.75" width="8.20" height="8.20" rx="1.15" fill="#5B9CF5" stroke="#2B5FAE" stroke-width="1.15"/><rect x="25.50" y="40.75" width="6.20" height="2.30" rx="0.57" fill="rgba(255,255,255,0.28)"/>
<rect x="24.50" y="30.50" width="8.20" height="8.20" rx="1.15" fill="#5B9CF5" stroke="#2B5FAE" stroke-width="1.15"/><rect x="25.50" y="31.50" width="6.20" height="2.30" rx="0.57" fill="rgba(255,255,255,0.28)"/>
<rect x="33.75" y="49.00" width="8.20" height="8.20" rx="1.15" fill="#5B9CF5" stroke="#2B5FAE" stroke-width="1.15"/><rect x="34.75" y="50.00" width="6.20" height="2.30" rx="0.57" fill="rgba(255,255,255,0.28)"/>
<rect x="33.75" y="39.75" width="8.20" height="8.20" rx="1.15" fill="#5B9CF5" stroke="#2B5FAE" stroke-width="1.15"/><rect x="34.75" y="40.75" width="6.20" height="2.30" rx="0.57" fill="rgba(255,255,255,0.28)"/>
<rect x="33.75" y="30.50" width="8.20" height="8.20" rx="1.15" fill="#5B9CF5" stroke="#2B5FAE" stroke-width="1.15"/><rect x="34.75" y="31.50" width="6.20" height="2.30" rx="0.57" fill="rgba(255,255,255,0.28)"/>
<rect x="33.75" y="21.25" width="8.20" height="8.20" rx="1.15" fill="#5B9CF5" stroke="#2B5FAE" stroke-width="1.15"/><rect x="34.75" y="22.25" width="6.20" height="2.30" rx="0.57" fill="rgba(255,255,255,0.28)"/>
<rect x="43.00" y="49.00" width="8.20" height="8.20" rx="1.15" fill="#5B9CF5" stroke="#2B5FAE" stroke-width="1.15"/><rect x="44.00" y="50.00" width="6.20" height="2.30" rx="0.57" fill="rgba(255,255,255,0.28)"/>
<rect x="43.00" y="39.75" width="8.20" height="8.20" rx="1.15" fill="#5B9CF5" stroke="#2B5FAE" stroke-width="1.15"/><rect x="44.00" y="40.75" width="6.20" height="2.30" rx="0.57" fill="rgba(255,255,255,0.28)"/>
<rect x="43.00" y="30.50" width="8.20" height="8.20" rx="1.15" fill="#5B9CF5" stroke="#2B5FAE" stroke-width="1.15"/><rect x="44.00" y="31.50" width="6.20" height="2.30" rx="0.57" fill="rgba(255,255,255,0.28)"/>
<rect x="43.00" y="21.25" width="8.20" height="8.20" rx="1.15" fill="#5B9CF5" stroke="#2B5FAE" stroke-width="1.15"/><rect x="44.00" y="22.25" width="6.20" height="2.30" rx="0.57" fill="rgba(255,255,255,0.28)"/>
<rect x="43.00" y="12.00" width="8.20" height="8.20" rx="1.15" fill="#5B9CF5" stroke="#2B5FAE" stroke-width="1.15"/><rect x="44.00" y="13.00" width="6.20" height="2.30" rx="0.57" fill="rgba(255,255,255,0.28)"/><circle cx="27.9" cy="31.0" r="1.7" fill="#1E3A8A"/><circle cx="33.9" cy="31.0" r="1.7" fill="#1E3A8A"/><path d="M27.6 35.2 Q30.9 40.0 34.1 35.2" stroke="#1E3A8A" stroke-width="1.7" stroke-linecap="round" fill="none"/><line x1="6" y1="49.0" x2="1" y2="39.0" stroke="#2B5FAE" stroke-width="2.3" stroke-linecap="round"/><line x1="51.2" y1="49.0" x2="56.2" y2="39.0" stroke="#2B5FAE" stroke-width="2.3" stroke-linecap="round"/><circle cx="0" cy="38.0" r="2.8" fill="#2B5FAE"/><circle cx="57.2" cy="38.0" r="2.8" fill="#2B5FAE"/><line x1="8.459999999999999" y1="57.2" x2="8.459999999999999" y2="62.2" stroke="#2B5FAE" stroke-width="1.9" stroke-linecap="round"/><line x1="48.74" y1="57.2" x2="48.74" y2="62.2" stroke="#2B5FAE" stroke-width="1.9" stroke-linecap="round"/>
</svg>
