<svg xmlns="http://www.w3.org/2000/svg" width="52" height="68" viewBox="0 0 52 68">
<rect x="10.00" y="18.00" width="7.50" height="7.50" rx="1.05" fill="#FF9F43" stroke="#C2410C" stroke-width="1.15"/><rect x="11.00" y="19.00" width="5.50" height="2.10" rx="0.53" fill="rgba(255,255,255,0.28)"/>
<rect x="18.50" y="18.00" width="7.50" height="7.50" rx="1.05" fill="#FF9F43" stroke="#C2410C" stroke-width="1.15"/><rect x="19.50" y="19.00" width="5.50" height="2.10" rx="0.53" fill="rgba(255,255,255,0.28)"/>
<rect x="27.00" y="18.00" width="7.50" height="7.50" rx="1.05" fill="#FF9F43" stroke="#C2410C" stroke-width="1.15"/><rect x="28.00" y="19.00" width="5.50" height="2.10" rx="0.53" fill="rgba(255,255,255,0.28)"/>
<rect x="35.50" y="18.00" width="7.50" height="7.50" rx="1.05" fill="#FF9F43" stroke="#C2410C" stroke-width="1.15"/><rect x="36.50" y="19.00" width="5.50" height="2.10" rx="0.53" fill="rgba(255,255,255,0.28)"/>
<rect x="10.00" y="26.50" width="7.50" height="7.50" rx="1.05" fill="#FF9F43" stroke="#C2410C" stroke-width="1.15"/><rect x="11.00" y="27.50" width="5.50" height="2.10" rx="0.53" fill="rgba(255,255,255,0.28)"/>
<rect x="18.50" y="26.50" width="7.50" height="7.50" rx="1.05" fill="#FF9F43" stroke="#C2410C" stroke-width="1.15"/><rect x="19.50" y="27.50" width="5.50" height="2.10" rx="0.53" fill="rgba(255,255,255,0.28)"/>
<rect x="27.00" y="26.50" width="7.50" height="7.50" rx="1.05" fill="#FF9F43" stroke="#C2410C" stroke-width="1.15"/><rect x="28.00" y="27.50" width="5.50" height="2.10" rx="0.53" fill="rgba(255,255,255,0.28)"/>
<rect x="35.50" y="26.50" width="7.50" height="7.50" rx="1.05" fill="#FF9F43" stroke="#C2410C" stroke-width="1.15"/><rect x="36.50" y="27.50" width="5.50" height="2.10" rx="0.53" fill="rgba(255,255,255,0.28)"/>
<rect x="10.00" y="35.00" width="7.50" height="7.50" rx="1.05" fill="#FF9F43" stroke="#C2410C" stroke-width="1.15"/><rect x="11.00" y="36.00" width="5.50" height="2.10" rx="0.53" fill="rgba(255,255,255,0.28)"/>
<rect x="18.50" y="35.00" width="7.50" height="7.50" rx="1.05" fill="#FF9F43" stroke="#C2410C" stroke-width="1.15"/><rect x="19.50" y="36.00" width="5.50" height="2.10" rx="0.53" fill="rgba(255,255,255,0.28)"/>
<rect x="27.00" y="35.00" width="7.50" height="7.50" rx="1.05" fill="#FF9F43" stroke="#C2410C" stroke-width="1.15"/><rect x="28.00" y="36.00" width="5.50" height="2.10" rx="0.53" fill="rgba(255,255,255,0.28)"/>
<rect x="35.50" y="35.00" width="7.50" height="7.50" rx="1.05" fill="#FF9F43" stroke="#C2410C" stroke-width="1.15"/><rect x="36.50" y="36.00" width="5.50" height="2.10" rx="0.53" fill="rgba(255,255,255,0.28)"/>
<rect x="10.00" y="43.50" width="7.50" height="7.50" rx="1.05" fill="#FF9F43" stroke="#C2410C" stroke-width="1.15"/><rect x="11.00" y="44.50" width="5.50" height="2.10" rx="0.53" fill="rgba(255,255,255,0.28)"/>
<rect x="18.50" y="43.50" width="7.50" height="7.50" rx="1.05" fill="#FF9F43" stroke="#C2410C" stroke-width="1.15"/><rect x="19.50" y="44.50" width="5.50" height="2.10" rx="0.53" fill="rgba(255,255,255,0.28)"/>
<rect x="27.00" y="43.50" width="7.50" height="7.50" rx="1.05" fill="#FF9F43" stroke="#C2410C" stroke-width="1.15"/><rect x="28.00" y="44.50" width="5.50" height="2.10" rx="0.53" fill="rgba(255,255,255,0.28)"/>
<rect x="35.50" y="43.50" width="7.50" height="7.50" rx="1.05" fill="#FF9F43" stroke="#C2410C" stroke-width="1.15"/><rect x="36.50" y="44.50" width="5.50" height="2.10" rx="0.53" fill="rgba(255,255,255,0.28)"/>
<rect x="10.00" y="52.00" width="7.50" height="7.50" rx="1.05" fill="#FF9F43" stroke="#C2410C" stroke-width="1.15"/><rect x="11.00" y="53.00" width="5.50" height="2.10" rx="0.53" fill="rgba(255,255,255,0.28)"/>
<rect x="18.50" y="52.00" width="7.50" height="7.50" rx="1.05" fill="#FF9F43" stroke="#C2410C" stroke-width="1.15"/><rect x="19.50" y="53.00" width="5.50" height="2.10" rx="0.53" fill="rgba(255,255,255,0.28)"/>
<rect x="27.00" y="52.00" width="7.50" height="7.50" rx="1.05" fill="#FF9F43" stroke="#C2410C" stroke-width="1.15"/><rect x="28.00" y="53.00" width="5.50" height="2.10" rx="0.53" fill="rgba(255,255,255,0.28)"/>
<rect x="35.50" y="52.00" width="7.50" height="7.50" rx="1.05" fill="#FF9F43" stroke="#C2410C" stroke-width="1.15"/><rect x="36.50" y="53.00" width="5.50" height="2.10" rx="0.53" fill="rgba(255,255,255,0.28)"/><rect x="17.5" y="5" width="18" height="11" rx="2" fill="#7C3AED"/><rect x="14.5" y="14" width="24" height="4" rx="2" fill="#6D28D9"/><circle cx="22.0" cy="21.4" r="3.4" fill="rgba(255,255,255,.45)" stroke="#3A2A22" stroke-width="1.5"/><circle cx="31.0" cy="21.4" r="3.4" fill="rgba(255,255,255,.45)" stroke="#3A2A22" stroke-width="1.5"/><line x1="25.4" y1="21.4" x2="27.6" y2="21.4" stroke="#3A2A22" stroke-width="1.3"/><path d="M23.0 25.1 Q26.5 29.9 30.0 25.1" stroke="#3A2A22" stroke-width="1.7" stroke-linecap="round" fill="none"/><path d="M18.5 36.3 L26.5 38.5 L18.5 40.7 Z" fill="#7C3AED"/><path d="M34.5 36.3 L26.5 38.5 L34.5 40.7 Z" fill="#7C3AED"/><circle cx="26.5" cy="38.5" r="1.7" fill="#5B21B6"/>
</svg>
