<svg xmlns="http://www.w3.org/2000/svg" width="52" height="54" viewBox="0 0 52 54">
<rect x="8.00" y="8.00" width="7.20" height="7.20" rx="1.01" fill="#5FE0F0" stroke="#0E7490" stroke-width="1.15"/><rect x="9.00" y="9.00" width="5.20" height="2.02" rx="0.50" fill="rgba(255,255,255,0.28)"/>
<rect x="16.20" y="8.00" width="7.20" height="7.20" rx="1.01" fill="#5FE0F0" stroke="#0E7490" stroke-width="1.15"/><rect x="17.20" y="9.00" width="5.20" height="2.02" rx="0.50" fill="rgba(255,255,255,0.28)"/>
<rect x="24.40" y="8.00" width="7.20" height="7.20" rx="1.01" fill="#5FE0F0" stroke="#0E7490" stroke-width="1.15"/><rect x="25.40" y="9.00" width="5.20" height="2.02" rx="0.50" fill="rgba(255,255,255,0.28)"/>
<rect x="32.60" y="8.00" width="7.20" height="7.20" rx="1.01" fill="#5FE0F0" stroke="#0E7490" stroke-width="1.15"/><rect x="33.60" y="9.00" width="5.20" height="2.02" rx="0.50" fill="rgba(255,255,255,0.28)"/>
<rect x="40.80" y="8.00" width="7.20" height="7.20" rx="1.01" fill="#5FE0F0" stroke="#0E7490" stroke-width="1.15"/><rect x="41.80" y="9.00" width="5.20" height="2.02" rx="0.50" fill="rgba(255,255,255,0.28)"/>
<rect x="8.00" y="16.20" width="7.20" height="7.20" rx="1.01" fill="#5FE0F0" stroke="#0E7490" stroke-width="1.15"/><rect x="9.00" y="17.20" width="5.20" height="2.02" rx="0.50" fill="rgba(255,255,255,0.28)"/>
<rect x="16.20" y="16.20" width="7.20" height="7.20" rx="1.01" fill="#5FE0F0" stroke="#0E7490" stroke-width="1.15"/><rect x="17.20" y="17.20" width="5.20" height="2.02" rx="0.50" fill="rgba(255,255,255,0.28)"/>
<rect x="24.40" y="16.20" width="7.20" height="7.20" rx="1.01" fill="#5FE0F0" stroke="#0E7490" stroke-width="1.15"/><rect x="25.40" y="17.20" width="5.20" height="2.02" rx="0.50" fill="rgba(255,255,255,0.28)"/>
<rect x="32.60" y="16.20" width="7.20" height="7.20" rx="1.01" fill="#5FE0F0" stroke="#0E7490" stroke-width="1.15"/><rect x="33.60" y="17.20" width="5.20" height="2.02" rx="0.50" fill="rgba(255,255,255,0.28)"/>
<rect x="40.80" y="16.20" width="7.20" height="7.20" rx="1.01" fill="#5FE0F0" stroke="#0E7490" stroke-width="1.15"/><rect x="41.80" y="17.20" width="5.20" height="2.02" rx="0.50" fill="rgba(255,255,255,0.28)"/>
<rect x="8.00" y="24.40" width="7.20" height="7.20" rx="1.01" fill="#5FE0F0" stroke="#0E7490" stroke-width="1.15"/><rect x="9.00" y="25.40" width="5.20" height="2.02" rx="0.50" fill="rgba(255,255,255,0.28)"/>
<rect x="16.20" y="24.40" width="7.20" height="7.20" rx="1.01" fill="#5FE0F0" stroke="#0E7490" stroke-width="1.15"/><rect x="17.20" y="25.40" width="5.20" height="2.02" rx="0.50" fill="rgba(255,255,255,0.28)"/>
<rect x="24.40" y="24.40" width="7.20" height="7.20" rx="1.01" fill="#5FE0F0" stroke="#0E7490" stroke-width="1.15"/><rect x="25.40" y="25.40" width="5.20" height="2.02" rx="0.50" fill="rgba(255,255,255,0.28)"/>
<rect x="32.60" y="24.40" width="7.20" height="7.20" rx="1.01" fill="#5FE0F0" stroke="#0E7490" stroke-width="1.15"/><rect x="33.60" y="25.40" width="5.20" height="2.02" rx="0.50" fill="rgba(255,255,255,0.28)"/>
<rect x="40.80" y="24.40" width="7.20" height="7.20" rx="1.01" fill="#5FE0F0" stroke="#0E7490" stroke-width="1.15"/><rect x="41.80" y="25.40" width="5.20" height="2.02" rx="0.50" fill="rgba(255,255,255,0.28)"/>
<rect x="8.00" y="32.60" width="7.20" height="7.20" rx="1.01" fill="#5FE0F0" stroke="#0E7490" stroke-width="1.15"/><rect x="9.00" y="33.60" width="5.20" height="2.02" rx="0.50" fill="rgba(255,255,255,0.28)"/>
<rect x="16.20" y="32.60" width="7.20" height="7.20" rx="1.01" fill="#5FE0F0" stroke="#0E7490" stroke-width="1.15"/><rect x="17.20" y="33.60" width="5.20" height="2.02" rx="0.50" fill="rgba(255,255,255,0.28)"/>
<rect x="24.40" y="32.60" width="7.20" height="7.20" rx="1.01" fill="#5FE0F0" stroke="#0E7490" stroke-width="1.15"/><rect x="25.40" y="33.60" width="5.20" height="2.02" rx="0.50" fill="rgba(255,255,255,0.28)"/>
<rect x="32.60" y="32.60" width="7.20" height="7.20" rx="1.01" fill="#5FE0F0" stroke="#0E7490" stroke-width="1.15"/><rect x="33.60" y="33.60" width="5.20" height="2.02" rx="0.50" fill="rgba(255,255,255,0.28)"/>
<rect x="40.80" y="32.60" width="7.20" height="7.20" rx="1.01" fill="#5FE0F0" stroke="#0E7490" stroke-width="1.15"/><rect x="41.80" y="33.60" width="5.20" height="2.02" rx="0.50" fill="rgba(255,255,255,0.28)"/>
<rect x="8.00" y="40.80" width="7.20" height="7.20" rx="1.01" fill="#5FE0F0" stroke="#0E7490" stroke-width="1.15"/><rect x="9.00" y="41.80" width="5.20" height="2.02" rx="0.50" fill="rgba(255,255,255,0.28)"/>
<rect x="16.20" y="40.80" width="7.20" height="7.20" rx="1.01" fill="#5FE0F0" stroke="#0E7490" stroke-width="1.15"/><rect x="17.20" y="41.80" width="5.20" height="2.02" rx="0.50" fill="rgba(255,255,255,0.28)"/>
<rect x="24.40" y="40.80" width="7.20" height="7.20" rx="1.01" fill="#5FE0F0" stroke="#0E7490" stroke-width="1.15"/><rect x="25.40" y="41.80" width="5.20" height="2.02" rx="0.50" fill="rgba(255,255,255,0.28)"/>
<rect x="32.60" y="40.80" width="7.20" height="7.20" rx="1.01" fill="#5FE0F0" stroke="#0E7490" stroke-width="1.15"/><rect x="33.60" y="41.80" width="5.20" height="2.02" rx="0.50" fill="rgba(255,255,255,0.28)"/>
<rect x="40.80" y="40.80" width="7.20" height="7.20" rx="1.01" fill="#5FE0F0" stroke="#0E7490" stroke-width="1.15"/><rect x="41.80" y="41.80" width="5.20" height="2.02" rx="0.50" fill="rgba(255,255,255,0.28)"/><rect x="20.1" y="7.9" width="6.8" height="6" rx="1" fill="rgba(255,255,255,.4)" stroke="#1E3A8A" stroke-width="1.5"/><rect x="29.1" y="7.9" width="6.8" height="6" rx="1" fill="rgba(255,255,255,.4)" stroke="#1E3A8A" stroke-width="1.5"/><line x1="26.9" y1="10.9" x2="29.1" y2="10.9" stroke="#1E3A8A" stroke-width="1.3"/><path d="M24.0 15.6 Q28.0 20.4 32.0 15.6" stroke="#1E3A8A" stroke-width="1.7" stroke-linecap="round" fill="none"/>
</svg>
