<svg xmlns="http://www.w3.org/2000/svg" width="52" height="68" viewBox="0 0 52 68">
<rect x="10.00" y="16.00" width="6.60" height="6.60" rx="1.00" fill="#F7C948" stroke="#A16207" stroke-width="1.15"/><rect x="11.00" y="17.00" width="4.60" height="1.85" rx="0.50" fill="rgba(255,255,255,0.28)"/>
<rect x="17.50" y="16.00" width="6.60" height="6.60" rx="1.00" fill="#F7C948" stroke="#A16207" stroke-width="1.15"/><rect x="18.50" y="17.00" width="4.60" height="1.85" rx="0.50" fill="rgba(255,255,255,0.28)"/>
<rect x="25.00" y="16.00" width="6.60" height="6.60" rx="1.00" fill="#F7C948" stroke="#A16207" stroke-width="1.15"/><rect x="26.00" y="17.00" width="4.60" height="1.85" rx="0.50" fill="rgba(255,255,255,0.28)"/>
<rect x="32.50" y="16.00" width="6.60" height="6.60" rx="1.00" fill="#F7C948" stroke="#A16207" stroke-width="1.15"/><rect x="33.50" y="17.00" width="4.60" height="1.85" rx="0.50" fill="rgba(255,255,255,0.28)"/>
<rect x="40.00" y="16.00" width="6.60" height="6.60" rx="1.00" fill="#F7C948" stroke="#A16207" stroke-width="1.15"/><rect x="41.00" y="17.00" width="4.60" height="1.85" rx="0.50" fill="rgba(255,255,255,0.28)"/>
<rect x="10.00" y="23.50" width="6.60" height="6.60" rx="1.00" fill="#F7C948" stroke="#A16207" stroke-width="1.15"/><rect x="11.00" y="24.50" width="4.60" height="1.85" rx="0.50" fill="rgba(255,255,255,0.28)"/>
<rect x="17.50" y="23.50" width="6.60" height="6.60" rx="1.00" fill="#F7C948" stroke="#A16207" stroke-width="1.15"/><rect x="18.50" y="24.50" width="4.60" height="1.85" rx="0.50" fill="rgba(255,255,255,0.28)"/>
<rect x="25.00" y="23.50" width="6.60" height="6.60" rx="1.00" fill="#F7C948" stroke="#A16207" stroke-width="1.15"/><rect x="26.00" y="24.50" width="4.60" height="1.85" rx="0.50" fill="rgba(255,255,255,0.28)"/>
<rect x="32.50" y="23.50" width="6.60" height="6.60" rx="1.00" fill="#F7C948" stroke="#A16207" stroke-width="1.15"/><rect x="33.50" y="24.50" width="4.60" height="1.85" rx="0.50" fill="rgba(255,255,255,0.28)"/>
<rect x="40.00" y="23.50" width="6.60" height="6.60" rx="1.00" fill="#F7C948" stroke="#A16207" stroke-width="1.15"/><rect x="41.00" y="24.50" width="4.60" height="1.85" rx="0.50" fill="rgba(255,255,255,0.28)"/>
<rect x="10.00" y="31.00" width="6.60" height="6.60" rx="1.00" fill="#F7C948" stroke="#A16207" stroke-width="1.15"/><rect x="11.00" y="32.00" width="4.60" height="1.85" rx="0.50" fill="rgba(255,255,255,0.28)"/>
<rect x="17.50" y="31.00" width="6.60" height="6.60" rx="1.00" fill="#F7C948" stroke="#A16207" stroke-width="1.15"/><rect x="18.50" y="32.00" width="4.60" height="1.85" rx="0.50" fill="rgba(255,255,255,0.28)"/>
<rect x="25.00" y="31.00" width="6.60" height="6.60" rx="1.00" fill="#F7C948" stroke="#A16207" stroke-width="1.15"/><rect x="26.00" y="32.00" width="4.60" height="1.85" rx="0.50" fill="rgba(255,255,255,0.28)"/>
<rect x="32.50" y="31.00" width="6.60" height="6.60" rx="1.00" fill="#F7C948" stroke="#A16207" stroke-width="1.15"/><rect x="33.50" y="32.00" width="4.60" height="1.85" rx="0.50" fill="rgba(255,255,255,0.28)"/>
<rect x="40.00" y="31.00" width="6.60" height="6.60" rx="1.00" fill="#F7C948" stroke="#A16207" stroke-width="1.15"/><rect x="41.00" y="32.00" width="4.60" height="1.85" rx="0.50" fill="rgba(255,255,255,0.28)"/>
<rect x="10.00" y="38.50" width="6.60" height="6.60" rx="1.00" fill="#F7C948" stroke="#A16207" stroke-width="1.15"/><rect x="11.00" y="39.50" width="4.60" height="1.85" rx="0.50" fill="rgba(255,255,255,0.28)"/>
<rect x="17.50" y="38.50" width="6.60" height="6.60" rx="1.00" fill="#F7C948" stroke="#A16207" stroke-width="1.15"/><rect x="18.50" y="39.50" width="4.60" height="1.85" rx="0.50" fill="rgba(255,255,255,0.28)"/>
<rect x="25.00" y="38.50" width="6.60" height="6.60" rx="1.00" fill="#F7C948" stroke="#A16207" stroke-width="1.15"/><rect x="26.00" y="39.50" width="4.60" height="1.85" rx="0.50" fill="rgba(255,255,255,0.28)"/>
<rect x="32.50" y="38.50" width="6.60" height="6.60" rx="1.00" fill="#F7C948" stroke="#A16207" stroke-width="1.15"/><rect x="33.50" y="39.50" width="4.60" height="1.85" rx="0.50" fill="rgba(255,255,255,0.28)"/>
<rect x="40.00" y="38.50" width="6.60" height="6.60" rx="1.00" fill="#F7C948" stroke="#A16207" stroke-width="1.15"/><rect x="41.00" y="39.50" width="4.60" height="1.85" rx="0.50" fill="rgba(255,255,255,0.28)"/>
<rect x="10.00" y="46.00" width="6.60" height="6.60" rx="1.00" fill="#F7C948" stroke="#A16207" stroke-width="1.15"/><rect x="11.00" y="47.00" width="4.60" height="1.85" rx="0.50" fill="rgba(255,255,255,0.28)"/>
<rect x="17.50" y="46.00" width="6.60" height="6.60" rx="1.00" fill="#F7C948" stroke="#A16207" stroke-width="1.15"/><rect x="18.50" y="47.00" width="4.60" height="1.85" rx="0.50" fill="rgba(255,255,255,0.28)"/>
<rect x="25.00" y="46.00" width="6.60" height="6.60" rx="1.00" fill="#F7C948" stroke="#A16207" stroke-width="1.15"/><rect x="26.00" y="47.00" width="4.60" height="1.85" rx="0.50" fill="rgba(255,255,255,0.28)"/>
<rect x="32.50" y="46.00" width="6.60" height="6.60" rx="1.00" fill="#F7C948" stroke="#A16207" stroke-width="1.15"/><rect x="33.50" y="47.00" width="4.60" height="1.85" rx="0.50" fill="rgba(255,255,255,0.28)"/>
<rect x="40.00" y="46.00" width="6.60" height="6.60" rx="1.00" fill="#F7C948" stroke="#A16207" stroke-width="1.15"/><rect x="41.00" y="47.00" width="4.60" height="1.85" rx="0.50" fill="rgba(255,255,255,0.28)"/>
<rect x="10.00" y="53.50" width="6.60" height="6.60" rx="1.00" fill="#F7C948" stroke="#A16207" stroke-width="1.15"/><rect x="11.00" y="54.50" width="4.60" height="1.85" rx="0.50" fill="rgba(255,255,255,0.28)"/>
<rect x="17.50" y="53.50" width="6.60" height="6.60" rx="1.00" fill="#F7C948" stroke="#A16207" stroke-width="1.15"/><rect x="18.50" y="54.50" width="4.60" height="1.85" rx="0.50" fill="rgba(255,255,255,0.28)"/>
<rect x="25.00" y="53.50" width="6.60" height="6.60" rx="1.00" fill="#F7C948" stroke="#A16207" stroke-width="1.15"/><rect x="26.00" y="54.50" width="4.60" height="1.85" rx="0.50" fill="rgba(255,255,255,0.28)"/>
<rect x="32.50" y="53.50" width="6.60" height="6.60" rx="1.00" fill="#F7C948" stroke="#A16207" stroke-width="1.15"/><rect x="33.50" y="54.50" width="4.60" height="1.85" rx="0.50" fill="rgba(255,255,255,0.28)"/>
<rect x="40.00" y="53.50" width="6.60" height="6.60" rx="1.00" fill="#F7C948" stroke="#A16207" stroke-width="1.15"/><rect x="41.00" y="54.50" width="4.60" height="1.85" rx="0.50" fill="rgba(255,255,255,0.28)"/><path d="M17.3 15.0 L17.3 5.0 L22.8 11.0 L28.3 4.0 L33.8 11.0 L39.3 5.0 L39.3 15.0 Z" fill="#FACC15" stroke="#CA8A04" stroke-width="1.2"/><circle cx="28.3" cy="4.0" r="1.8" fill="#FEF08A"/><circle cx="24.6" cy="18.6" r="1.8" fill="#7A4E00"/><circle cx="32.0" cy="18.6" r="1.8" fill="#7A4E00"/><path d="M24.3 21.9 Q28.3 26.7 32.3 21.9" stroke="#7A4E00" stroke-width="1.7" stroke-linecap="round" fill="none"/>
</svg>
