<svg xmlns="http://www.w3.org/2000/svg" width="56" height="46" viewBox="0 0 56 46">
<rect x="6.00" y="8.00" width="5.80" height="5.80" rx="1.00" fill="#F6C445" stroke="#A16207" stroke-width="1.15"/><rect x="7.00" y="9.00" width="3.80" height="1.62" rx="0.50" fill="rgba(255,255,255,0.28)"/>
<rect x="12.65" y="8.00" width="5.80" height="5.80" rx="1.00" fill="#F6C445" stroke="#A16207" stroke-width="1.15"/><rect x="13.65" y="9.00" width="3.80" height="1.62" rx="0.50" fill="rgba(255,255,255,0.28)"/>
<rect x="19.30" y="8.00" width="5.80" height="5.80" rx="1.00" fill="#F6C445" stroke="#A16207" stroke-width="1.15"/><rect x="20.30" y="9.00" width="3.80" height="1.62" rx="0.50" fill="rgba(255,255,255,0.28)"/>
<rect x="25.95" y="8.00" width="5.80" height="5.80" rx="1.00" fill="#F6C445" stroke="#A16207" stroke-width="1.15"/><rect x="26.95" y="9.00" width="3.80" height="1.62" rx="0.50" fill="rgba(255,255,255,0.28)"/>
<rect x="32.60" y="8.00" width="5.80" height="5.80" rx="1.00" fill="#F6C445" stroke="#A16207" stroke-width="1.15"/><rect x="33.60" y="9.00" width="3.80" height="1.62" rx="0.50" fill="rgba(255,255,255,0.28)"/>
<rect x="39.25" y="8.00" width="5.80" height="5.80" rx="1.00" fill="#F6C445" stroke="#A16207" stroke-width="1.15"/><rect x="40.25" y="9.00" width="3.80" height="1.62" rx="0.50" fill="rgba(255,255,255,0.28)"/>
<rect x="45.90" y="8.00" width="5.80" height="5.80" rx="1.00" fill="#F6C445" stroke="#A16207" stroke-width="1.15"/><rect x="46.90" y="9.00" width="3.80" height="1.62" rx="0.50" fill="rgba(255,255,255,0.28)"/>
<rect x="6.00" y="14.65" width="5.80" height="5.80" rx="1.00" fill="#F6C445" stroke="#A16207" stroke-width="1.15"/><rect x="7.00" y="15.65" width="3.80" height="1.62" rx="0.50" fill="rgba(255,255,255,0.28)"/>
<rect x="12.65" y="14.65" width="5.80" height="5.80" rx="1.00" fill="#F6C445" stroke="#A16207" stroke-width="1.15"/><rect x="13.65" y="15.65" width="3.80" height="1.62" rx="0.50" fill="rgba(255,255,255,0.28)"/>
<rect x="19.30" y="14.65" width="5.80" height="5.80" rx="1.00" fill="#F6C445" stroke="#A16207" stroke-width="1.15"/><rect x="20.30" y="15.65" width="3.80" height="1.62" rx="0.50" fill="rgba(255,255,255,0.28)"/>
<rect x="25.95" y="14.65" width="5.80" height="5.80" rx="1.00" fill="#F6C445" stroke="#A16207" stroke-width="1.15"/><rect x="26.95" y="15.65" width="3.80" height="1.62" rx="0.50" fill="rgba(255,255,255,0.28)"/>
<rect x="32.60" y="14.65" width="5.80" height="5.80" rx="1.00" fill="#F6C445" stroke="#A16207" stroke-width="1.15"/><rect x="33.60" y="15.65" width="3.80" height="1.62" rx="0.50" fill="rgba(255,255,255,0.28)"/>
<rect x="39.25" y="14.65" width="5.80" height="5.80" rx="1.00" fill="#F6C445" stroke="#A16207" stroke-width="1.15"/><rect x="40.25" y="15.65" width="3.80" height="1.62" rx="0.50" fill="rgba(255,255,255,0.28)"/>
<rect x="45.90" y="14.65" width="5.80" height="5.80" rx="1.00" fill="#F6C445" stroke="#A16207" stroke-width="1.15"/><rect x="46.90" y="15.65" width="3.80" height="1.62" rx="0.50" fill="rgba(255,255,255,0.28)"/>
<rect x="6.00" y="21.30" width="5.80" height="5.80" rx="1.00" fill="#F6C445" stroke="#A16207" stroke-width="1.15"/><rect x="7.00" y="22.30" width="3.80" height="1.62" rx="0.50" fill="rgba(255,255,255,0.28)"/>
<rect x="12.65" y="21.30" width="5.80" height="5.80" rx="1.00" fill="#F6C445" stroke="#A16207" stroke-width="1.15"/><rect x="13.65" y="22.30" width="3.80" height="1.62" rx="0.50" fill="rgba(255,255,255,0.28)"/>
<rect x="19.30" y="21.30" width="5.80" height="5.80" rx="1.00" fill="#F6C445" stroke="#A16207" stroke-width="1.15"/><rect x="20.30" y="22.30" width="3.80" height="1.62" rx="0.50" fill="rgba(255,255,255,0.28)"/>
<rect x="25.95" y="21.30" width="5.80" height="5.80" rx="1.00" fill="#F6C445" stroke="#A16207" stroke-width="1.15"/><rect x="26.95" y="22.30" width="3.80" height="1.62" rx="0.50" fill="rgba(255,255,255,0.28)"/>
<rect x="32.60" y="21.30" width="5.80" height="5.80" rx="1.00" fill="#F6C445" stroke="#A16207" stroke-width="1.15"/><rect x="33.60" y="22.30" width="3.80" height="1.62" rx="0.50" fill="rgba(255,255,255,0.28)"/>
<rect x="39.25" y="21.30" width="5.80" height="5.80" rx="1.00" fill="#F6C445" stroke="#A16207" stroke-width="1.15"/><rect x="40.25" y="22.30" width="3.80" height="1.62" rx="0.50" fill="rgba(255,255,255,0.28)"/>
<rect x="45.90" y="21.30" width="5.80" height="5.80" rx="1.00" fill="#F6C445" stroke="#A16207" stroke-width="1.15"/><rect x="46.90" y="22.30" width="3.80" height="1.62" rx="0.50" fill="rgba(255,255,255,0.28)"/>
<rect x="6.00" y="27.95" width="5.80" height="5.80" rx="1.00" fill="#F6C445" stroke="#A16207" stroke-width="1.15"/><rect x="7.00" y="28.95" width="3.80" height="1.62" rx="0.50" fill="rgba(255,255,255,0.28)"/>
<rect x="12.65" y="27.95" width="5.80" height="5.80" rx="1.00" fill="#F6C445" stroke="#A16207" stroke-width="1.15"/><rect x="13.65" y="28.95" width="3.80" height="1.62" rx="0.50" fill="rgba(255,255,255,0.28)"/>
<rect x="19.30" y="27.95" width="5.80" height="5.80" rx="1.00" fill="#F6C445" stroke="#A16207" stroke-width="1.15"/><rect x="20.30" y="28.95" width="3.80" height="1.62" rx="0.50" fill="rgba(255,255,255,0.28)"/>
<rect x="25.95" y="27.95" width="5.80" height="5.80" rx="1.00" fill="#F6C445" stroke="#A16207" stroke-width="1.15"/><rect x="26.95" y="28.95" width="3.80" height="1.62" rx="0.50" fill="rgba(255,255,255,0.28)"/>
<rect x="32.60" y="27.95" width="5.80" height="5.80" rx="1.00" fill="#F6C445" stroke="#A16207" stroke-width="1.15"/><rect x="33.60" y="28.95" width="3.80" height="1.62" rx="0.50" fill="rgba(255,255,255,0.28)"/>
<rect x="39.25" y="27.95" width="5.80" height="5.80" rx="1.00" fill="#F6C445" stroke="#A16207" stroke-width="1.15"/><rect x="40.25" y="28.95" width="3.80" height="1.62" rx="0.50" fill="rgba(255,255,255,0.28)"/>
<rect x="45.90" y="27.95" width="5.80" height="5.80" rx="1.00" fill="#F6C445" stroke="#A16207" stroke-width="1.15"/><rect x="46.90" y="28.95" width="3.80" height="1.62" rx="0.50" fill="rgba(255,255,255,0.28)"/>
<rect x="6.00" y="34.60" width="5.80" height="5.80" rx="1.00" fill="#F6C445" stroke="#A16207" stroke-width="1.15"/><rect x="7.00" y="35.60" width="3.80" height="1.62" rx="0.50" fill="rgba(255,255,255,0.28)"/>
<rect x="12.65" y="34.60" width="5.80" height="5.80" rx="1.00" fill="#F6C445" stroke="#A16207" stroke-width="1.15"/><rect x="13.65" y="35.60" width="3.80" height="1.62" rx="0.50" fill="rgba(255,255,255,0.28)"/>
<rect x="19.30" y="34.60" width="5.80" height="5.80" rx="1.00" fill="#F6C445" stroke="#A16207" stroke-width="1.15"/><rect x="20.30" y="35.60" width="3.80" height="1.62" rx="0.50" fill="rgba(255,255,255,0.28)"/>
<rect x="25.95" y="34.60" width="5.80" height="5.80" rx="1.00" fill="#F6C445" stroke="#A16207" stroke-width="1.15"/><rect x="26.95" y="35.60" width="3.80" height="1.62" rx="0.50" fill="rgba(255,255,255,0.28)"/>
<rect x="32.60" y="34.60" width="5.80" height="5.80" rx="1.00" fill="#F6C445" stroke="#A16207" stroke-width="1.15"/><rect x="33.60" y="35.60" width="3.80" height="1.62" rx="0.50" fill="rgba(255,255,255,0.28)"/>
<rect x="39.25" y="34.60" width="5.80" height="5.80" rx="1.00" fill="#F6C445" stroke="#A16207" stroke-width="1.15"/><rect x="40.25" y="35.60" width="3.80" height="1.62" rx="0.50" fill="rgba(255,255,255,0.28)"/>
<rect x="45.90" y="34.60" width="5.80" height="5.80" rx="1.00" fill="#F6C445" stroke="#A16207" stroke-width="1.15"/><rect x="46.90" y="35.60" width="3.80" height="1.62" rx="0.50" fill="rgba(255,255,255,0.28)"/><rect x="16.8" y="9.6" width="3.2" height="5.2" rx="0.8" fill="#FF5A5A"/><rect x="20.3" y="9.6" width="3.2" height="5.2" rx="0.8" fill="#FF9F43"/><rect x="23.8" y="9.6" width="3.2" height="5.2" rx="0.8" fill="#F7C948"/><rect x="27.3" y="9.6" width="3.2" height="5.2" rx="0.8" fill="#4FCB6B"/><rect x="30.8" y="9.6" width="3.2" height="5.2" rx="0.8" fill="#22C3E6"/><rect x="34.3" y="9.6" width="3.2" height="5.2" rx="0.8" fill="#9B6BF0"/><rect x="37.8" y="9.6" width="3.2" height="5.2" rx="0.8" fill="#FF6FB5"/><path d="M24.8 14.7 Q28.8 19.5 32.8 14.7" stroke="#5B4A42" stroke-width="1.7" stroke-linecap="round" fill="none"/>
</svg>
