<svg xmlns="http://www.w3.org/2000/svg" width="46" height="58" viewBox="0 0 46 58">
<rect x="8.00" y="6.00" width="5.40" height="5.40" rx="1.00" fill="#68D391" stroke="#166534" stroke-width="1.15"/><rect x="9.00" y="7.00" width="3.40" height="1.51" rx="0.50" fill="rgba(255,255,255,0.28)"/>
<rect x="14.15" y="6.00" width="5.40" height="5.40" rx="1.00" fill="#68D391" stroke="#166534" stroke-width="1.15"/><rect x="15.15" y="7.00" width="3.40" height="1.51" rx="0.50" fill="rgba(255,255,255,0.28)"/>
<rect x="20.30" y="6.00" width="5.40" height="5.40" rx="1.00" fill="#68D391" stroke="#166534" stroke-width="1.15"/><rect x="21.30" y="7.00" width="3.40" height="1.51" rx="0.50" fill="rgba(255,255,255,0.28)"/>
<rect x="26.45" y="6.00" width="5.40" height="5.40" rx="1.00" fill="#68D391" stroke="#166534" stroke-width="1.15"/><rect x="27.45" y="7.00" width="3.40" height="1.51" rx="0.50" fill="rgba(255,255,255,0.28)"/>
<rect x="32.60" y="6.00" width="5.40" height="5.40" rx="1.00" fill="#68D391" stroke="#166534" stroke-width="1.15"/><rect x="33.60" y="7.00" width="3.40" height="1.51" rx="0.50" fill="rgba(255,255,255,0.28)"/>
<rect x="8.00" y="12.15" width="5.40" height="5.40" rx="1.00" fill="#68D391" stroke="#166534" stroke-width="1.15"/><rect x="9.00" y="13.15" width="3.40" height="1.51" rx="0.50" fill="rgba(255,255,255,0.28)"/>
<rect x="14.15" y="12.15" width="5.40" height="5.40" rx="1.00" fill="#68D391" stroke="#166534" stroke-width="1.15"/><rect x="15.15" y="13.15" width="3.40" height="1.51" rx="0.50" fill="rgba(255,255,255,0.28)"/>
<rect x="20.30" y="12.15" width="5.40" height="5.40" rx="1.00" fill="#68D391" stroke="#166534" stroke-width="1.15"/><rect x="21.30" y="13.15" width="3.40" height="1.51" rx="0.50" fill="rgba(255,255,255,0.28)"/>
<rect x="26.45" y="12.15" width="5.40" height="5.40" rx="1.00" fill="#68D391" stroke="#166534" stroke-width="1.15"/><rect x="27.45" y="13.15" width="3.40" height="1.51" rx="0.50" fill="rgba(255,255,255,0.28)"/>
<rect x="32.60" y="12.15" width="5.40" height="5.40" rx="1.00" fill="#68D391" stroke="#166534" stroke-width="1.15"/><rect x="33.60" y="13.15" width="3.40" height="1.51" rx="0.50" fill="rgba(255,255,255,0.28)"/>
<rect x="8.00" y="18.30" width="5.40" height="5.40" rx="1.00" fill="#68D391" stroke="#166534" stroke-width="1.15"/><rect x="9.00" y="19.30" width="3.40" height="1.51" rx="0.50" fill="rgba(255,255,255,0.28)"/>
<rect x="14.15" y="18.30" width="5.40" height="5.40" rx="1.00" fill="#68D391" stroke="#166534" stroke-width="1.15"/><rect x="15.15" y="19.30" width="3.40" height="1.51" rx="0.50" fill="rgba(255,255,255,0.28)"/>
<rect x="20.30" y="18.30" width="5.40" height="5.40" rx="1.00" fill="#68D391" stroke="#166534" stroke-width="1.15"/><rect x="21.30" y="19.30" width="3.40" height="1.51" rx="0.50" fill="rgba(255,255,255,0.28)"/>
<rect x="26.45" y="18.30" width="5.40" height="5.40" rx="1.00" fill="#68D391" stroke="#166534" stroke-width="1.15"/><rect x="27.45" y="19.30" width="3.40" height="1.51" rx="0.50" fill="rgba(255,255,255,0.28)"/>
<rect x="32.60" y="18.30" width="5.40" height="5.40" rx="1.00" fill="#68D391" stroke="#166534" stroke-width="1.15"/><rect x="33.60" y="19.30" width="3.40" height="1.51" rx="0.50" fill="rgba(255,255,255,0.28)"/>
<rect x="8.00" y="24.45" width="5.40" height="5.40" rx="1.00" fill="#68D391" stroke="#166534" stroke-width="1.15"/><rect x="9.00" y="25.45" width="3.40" height="1.51" rx="0.50" fill="rgba(255,255,255,0.28)"/>
<rect x="14.15" y="24.45" width="5.40" height="5.40" rx="1.00" fill="#68D391" stroke="#166534" stroke-width="1.15"/><rect x="15.15" y="25.45" width="3.40" height="1.51" rx="0.50" fill="rgba(255,255,255,0.28)"/>
<rect x="20.30" y="24.45" width="5.40" height="5.40" rx="1.00" fill="#68D391" stroke="#166534" stroke-width="1.15"/><rect x="21.30" y="25.45" width="3.40" height="1.51" rx="0.50" fill="rgba(255,255,255,0.28)"/>
<rect x="26.45" y="24.45" width="5.40" height="5.40" rx="1.00" fill="#68D391" stroke="#166534" stroke-width="1.15"/><rect x="27.45" y="25.45" width="3.40" height="1.51" rx="0.50" fill="rgba(255,255,255,0.28)"/>
<rect x="32.60" y="24.45" width="5.40" height="5.40" rx="1.00" fill="#68D391" stroke="#166534" stroke-width="1.15"/><rect x="33.60" y="25.45" width="3.40" height="1.51" rx="0.50" fill="rgba(255,255,255,0.28)"/>
<rect x="8.00" y="30.60" width="5.40" height="5.40" rx="1.00" fill="#68D391" stroke="#166534" stroke-width="1.15"/><rect x="9.00" y="31.60" width="3.40" height="1.51" rx="0.50" fill="rgba(255,255,255,0.28)"/>
<rect x="14.15" y="30.60" width="5.40" height="5.40" rx="1.00" fill="#68D391" stroke="#166534" stroke-width="1.15"/><rect x="15.15" y="31.60" width="3.40" height="1.51" rx="0.50" fill="rgba(255,255,255,0.28)"/>
<rect x="20.30" y="30.60" width="5.40" height="5.40" rx="1.00" fill="#68D391" stroke="#166534" stroke-width="1.15"/><rect x="21.30" y="31.60" width="3.40" height="1.51" rx="0.50" fill="rgba(255,255,255,0.28)"/>
<rect x="26.45" y="30.60" width="5.40" height="5.40" rx="1.00" fill="#68D391" stroke="#166534" stroke-width="1.15"/><rect x="27.45" y="31.60" width="3.40" height="1.51" rx="0.50" fill="rgba(255,255,255,0.28)"/>
<rect x="32.60" y="30.60" width="5.40" height="5.40" rx="1.00" fill="#68D391" stroke="#166534" stroke-width="1.15"/><rect x="33.60" y="31.60" width="3.40" height="1.51" rx="0.50" fill="rgba(255,255,255,0.28)"/>
<rect x="8.00" y="36.75" width="5.40" height="5.40" rx="1.00" fill="#68D391" stroke="#166534" stroke-width="1.15"/><rect x="9.00" y="37.75" width="3.40" height="1.51" rx="0.50" fill="rgba(255,255,255,0.28)"/>
<rect x="14.15" y="36.75" width="5.40" height="5.40" rx="1.00" fill="#68D391" stroke="#166534" stroke-width="1.15"/><rect x="15.15" y="37.75" width="3.40" height="1.51" rx="0.50" fill="rgba(255,255,255,0.28)"/>
<rect x="20.30" y="36.75" width="5.40" height="5.40" rx="1.00" fill="#68D391" stroke="#166534" stroke-width="1.15"/><rect x="21.30" y="37.75" width="3.40" height="1.51" rx="0.50" fill="rgba(255,255,255,0.28)"/>
<rect x="26.45" y="36.75" width="5.40" height="5.40" rx="1.00" fill="#68D391" stroke="#166534" stroke-width="1.15"/><rect x="27.45" y="37.75" width="3.40" height="1.51" rx="0.50" fill="rgba(255,255,255,0.28)"/>
<rect x="32.60" y="36.75" width="5.40" height="5.40" rx="1.00" fill="#68D391" stroke="#166534" stroke-width="1.15"/><rect x="33.60" y="37.75" width="3.40" height="1.51" rx="0.50" fill="rgba(255,255,255,0.28)"/>
<rect x="8.00" y="42.90" width="5.40" height="5.40" rx="1.00" fill="#68D391" stroke="#166534" stroke-width="1.15"/><rect x="9.00" y="43.90" width="3.40" height="1.51" rx="0.50" fill="rgba(255,255,255,0.28)"/>
<rect x="14.15" y="42.90" width="5.40" height="5.40" rx="1.00" fill="#68D391" stroke="#166534" stroke-width="1.15"/><rect x="15.15" y="43.90" width="3.40" height="1.51" rx="0.50" fill="rgba(255,255,255,0.28)"/>
<rect x="20.30" y="42.90" width="5.40" height="5.40" rx="1.00" fill="#68D391" stroke="#166534" stroke-width="1.15"/><rect x="21.30" y="43.90" width="3.40" height="1.51" rx="0.50" fill="rgba(255,255,255,0.28)"/>
<rect x="26.45" y="42.90" width="5.40" height="5.40" rx="1.00" fill="#68D391" stroke="#166534" stroke-width="1.15"/><rect x="27.45" y="43.90" width="3.40" height="1.51" rx="0.50" fill="rgba(255,255,255,0.28)"/>
<rect x="32.60" y="42.90" width="5.40" height="5.40" rx="1.00" fill="#68D391" stroke="#166534" stroke-width="1.15"/><rect x="33.60" y="43.90" width="3.40" height="1.51" rx="0.50" fill="rgba(255,255,255,0.28)"/>
<rect x="8.00" y="49.05" width="5.40" height="5.40" rx="1.00" fill="#68D391" stroke="#166534" stroke-width="1.15"/><rect x="9.00" y="50.05" width="3.40" height="1.51" rx="0.50" fill="rgba(255,255,255,0.28)"/>
<rect x="14.15" y="49.05" width="5.40" height="5.40" rx="1.00" fill="#68D391" stroke="#166534" stroke-width="1.15"/><rect x="15.15" y="50.05" width="3.40" height="1.51" rx="0.50" fill="rgba(255,255,255,0.28)"/>
<rect x="20.30" y="49.05" width="5.40" height="5.40" rx="1.00" fill="#68D391" stroke="#166534" stroke-width="1.15"/><rect x="21.30" y="50.05" width="3.40" height="1.51" rx="0.50" fill="rgba(255,255,255,0.28)"/>
<rect x="26.45" y="49.05" width="5.40" height="5.40" rx="1.00" fill="#68D391" stroke="#166534" stroke-width="1.15"/><rect x="27.45" y="50.05" width="3.40" height="1.51" rx="0.50" fill="rgba(255,255,255,0.28)"/>
<rect x="32.60" y="49.05" width="5.40" height="5.40" rx="1.00" fill="#68D391" stroke="#166534" stroke-width="1.15"/><rect x="33.60" y="50.05" width="3.40" height="1.51" rx="0.50" fill="rgba(255,255,255,0.28)"/><rect x="15.6" y="4.9" width="6.8" height="6" rx="1" fill="rgba(255,255,255,.4)" stroke="#14532D" stroke-width="1.5"/><rect x="23.6" y="4.9" width="6.8" height="6" rx="1" fill="rgba(255,255,255,.4)" stroke="#14532D" stroke-width="1.5"/><line x1="22.4" y1="7.9" x2="23.6" y2="7.9" stroke="#14532D" stroke-width="1.3"/><path d="M19.5 11.7 Q23.0 16.5 26.5 11.7" stroke="#14532D" stroke-width="1.7" stroke-linecap="round" fill="none"/>
</svg>
