<svg xmlns="http://www.w3.org/2000/svg" width="50" height="54" viewBox="0 0 50 54">
<rect x="2.00" y="46.40" width="4.40" height="4.40" rx="1.00" fill="#5B8DEF" stroke="#1D4ED8" stroke-width="1.15"/><rect x="3.00" y="47.40" width="2.40" height="1.23" rx="0.50" fill="rgba(255,255,255,0.28)"/>
<rect x="7.05" y="46.40" width="4.40" height="4.40" rx="1.00" fill="#5B8DEF" stroke="#1D4ED8" stroke-width="1.15"/><rect x="8.05" y="47.40" width="2.40" height="1.23" rx="0.50" fill="rgba(255,255,255,0.28)"/>
<rect x="7.05" y="41.35" width="4.40" height="4.40" rx="1.00" fill="#5B8DEF" stroke="#1D4ED8" stroke-width="1.15"/><rect x="8.05" y="42.35" width="2.40" height="1.23" rx="0.50" fill="rgba(255,255,255,0.28)"/>
<rect x="12.10" y="46.40" width="4.40" height="4.40" rx="1.00" fill="#5B8DEF" stroke="#1D4ED8" stroke-width="1.15"/><rect x="13.10" y="47.40" width="2.40" height="1.23" rx="0.50" fill="rgba(255,255,255,0.28)"/>
<rect x="12.10" y="41.35" width="4.40" height="4.40" rx="1.00" fill="#5B8DEF" stroke="#1D4ED8" stroke-width="1.15"/><rect x="13.10" y="42.35" width="2.40" height="1.23" rx="0.50" fill="rgba(255,255,255,0.28)"/>
<rect x="12.10" y="36.30" width="4.40" height="4.40" rx="1.00" fill="#5B8DEF" stroke="#1D4ED8" stroke-width="1.15"/><rect x="13.10" y="37.30" width="2.40" height="1.23" rx="0.50" fill="rgba(255,255,255,0.28)"/>
<rect x="17.15" y="46.40" width="4.40" height="4.40" rx="1.00" fill="#5B8DEF" stroke="#1D4ED8" stroke-width="1.15"/><rect x="18.15" y="47.40" width="2.40" height="1.23" rx="0.50" fill="rgba(255,255,255,0.28)"/>
<rect x="17.15" y="41.35" width="4.40" height="4.40" rx="1.00" fill="#5B8DEF" stroke="#1D4ED8" stroke-width="1.15"/><rect x="18.15" y="42.35" width="2.40" height="1.23" rx="0.50" fill="rgba(255,255,255,0.28)"/>
<rect x="17.15" y="36.30" width="4.40" height="4.40" rx="1.00" fill="#5B8DEF" stroke="#1D4ED8" stroke-width="1.15"/><rect x="18.15" y="37.30" width="2.40" height="1.23" rx="0.50" fill="rgba(255,255,255,0.28)"/>
<rect x="17.15" y="31.25" width="4.40" height="4.40" rx="1.00" fill="#5B8DEF" stroke="#1D4ED8" stroke-width="1.15"/><rect x="18.15" y="32.25" width="2.40" height="1.23" rx="0.50" fill="rgba(255,255,255,0.28)"/>
<rect x="22.20" y="46.40" width="4.40" height="4.40" rx="1.00" fill="#5B8DEF" stroke="#1D4ED8" stroke-width="1.15"/><rect x="23.20" y="47.40" width="2.40" height="1.23" rx="0.50" fill="rgba(255,255,255,0.28)"/>
<rect x="22.20" y="41.35" width="4.40" height="4.40" rx="1.00" fill="#5B8DEF" stroke="#1D4ED8" stroke-width="1.15"/><rect x="23.20" y="42.35" width="2.40" height="1.23" rx="0.50" fill="rgba(255,255,255,0.28)"/>
<rect x="22.20" y="36.30" width="4.40" height="4.40" rx="1.00" fill="#5B8DEF" stroke="#1D4ED8" stroke-width="1.15"/><rect x="23.20" y="37.30" width="2.40" height="1.23" rx="0.50" fill="rgba(255,255,255,0.28)"/>
<rect x="22.20" y="31.25" width="4.40" height="4.40" rx="1.00" fill="#5B8DEF" stroke="#1D4ED8" stroke-width="1.15"/><rect x="23.20" y="32.25" width="2.40" height="1.23" rx="0.50" fill="rgba(255,255,255,0.28)"/>
<rect x="22.20" y="26.20" width="4.40" height="4.40" rx="1.00" fill="#5B8DEF" stroke="#1D4ED8" stroke-width="1.15"/><rect x="23.20" y="27.20" width="2.40" height="1.23" rx="0.50" fill="rgba(255,255,255,0.28)"/>
<rect x="27.25" y="46.40" width="4.40" height="4.40" rx="1.00" fill="#5B8DEF" stroke="#1D4ED8" stroke-width="1.15"/><rect x="28.25" y="47.40" width="2.40" height="1.23" rx="0.50" fill="rgba(255,255,255,0.28)"/>
<rect x="27.25" y="41.35" width="4.40" height="4.40" rx="1.00" fill="#5B8DEF" stroke="#1D4ED8" stroke-width="1.15"/><rect x="28.25" y="42.35" width="2.40" height="1.23" rx="0.50" fill="rgba(255,255,255,0.28)"/>
<rect x="27.25" y="36.30" width="4.40" height="4.40" rx="1.00" fill="#5B8DEF" stroke="#1D4ED8" stroke-width="1.15"/><rect x="28.25" y="37.30" width="2.40" height="1.23" rx="0.50" fill="rgba(255,255,255,0.28)"/>
<rect x="27.25" y="31.25" width="4.40" height="4.40" rx="1.00" fill="#5B8DEF" stroke="#1D4ED8" stroke-width="1.15"/><rect x="28.25" y="32.25" width="2.40" height="1.23" rx="0.50" fill="rgba(255,255,255,0.28)"/>
<rect x="27.25" y="26.20" width="4.40" height="4.40" rx="1.00" fill="#5B8DEF" stroke="#1D4ED8" stroke-width="1.15"/><rect x="28.25" y="27.20" width="2.40" height="1.23" rx="0.50" fill="rgba(255,255,255,0.28)"/>
<rect x="27.25" y="21.15" width="4.40" height="4.40" rx="1.00" fill="#5B8DEF" stroke="#1D4ED8" stroke-width="1.15"/><rect x="28.25" y="22.15" width="2.40" height="1.23" rx="0.50" fill="rgba(255,255,255,0.28)"/>
<rect x="32.30" y="46.40" width="4.40" height="4.40" rx="1.00" fill="#5B8DEF" stroke="#1D4ED8" stroke-width="1.15"/><rect x="33.30" y="47.40" width="2.40" height="1.23" rx="0.50" fill="rgba(255,255,255,0.28)"/>
<rect x="32.30" y="41.35" width="4.40" height="4.40" rx="1.00" fill="#5B8DEF" stroke="#1D4ED8" stroke-width="1.15"/><rect x="33.30" y="42.35" width="2.40" height="1.23" rx="0.50" fill="rgba(255,255,255,0.28)"/>
<rect x="32.30" y="36.30" width="4.40" height="4.40" rx="1.00" fill="#5B8DEF" stroke="#1D4ED8" stroke-width="1.15"/><rect x="33.30" y="37.30" width="2.40" height="1.23" rx="0.50" fill="rgba(255,255,255,0.28)"/>
<rect x="32.30" y="31.25" width="4.40" height="4.40" rx="1.00" fill="#5B8DEF" stroke="#1D4ED8" stroke-width="1.15"/><rect x="33.30" y="32.25" width="2.40" height="1.23" rx="0.50" fill="rgba(255,255,255,0.28)"/>
<rect x="32.30" y="26.20" width="4.40" height="4.40" rx="1.00" fill="#5B8DEF" stroke="#1D4ED8" stroke-width="1.15"/><rect x="33.30" y="27.20" width="2.40" height="1.23" rx="0.50" fill="rgba(255,255,255,0.28)"/>
<rect x="32.30" y="21.15" width="4.40" height="4.40" rx="1.00" fill="#5B8DEF" stroke="#1D4ED8" stroke-width="1.15"/><rect x="33.30" y="22.15" width="2.40" height="1.23" rx="0.50" fill="rgba(255,255,255,0.28)"/>
<rect x="32.30" y="16.10" width="4.40" height="4.40" rx="1.00" fill="#5B8DEF" stroke="#1D4ED8" stroke-width="1.15"/><rect x="33.30" y="17.10" width="2.40" height="1.23" rx="0.50" fill="rgba(255,255,255,0.28)"/>
<rect x="37.35" y="46.40" width="4.40" height="4.40" rx="1.00" fill="#5B8DEF" stroke="#1D4ED8" stroke-width="1.15"/><rect x="38.35" y="47.40" width="2.40" height="1.23" rx="0.50" fill="rgba(255,255,255,0.28)"/>
<rect x="37.35" y="41.35" width="4.40" height="4.40" rx="1.00" fill="#5B8DEF" stroke="#1D4ED8" stroke-width="1.15"/><rect x="38.35" y="42.35" width="2.40" height="1.23" rx="0.50" fill="rgba(255,255,255,0.28)"/>
<rect x="37.35" y="36.30" width="4.40" height="4.40" rx="1.00" fill="#5B8DEF" stroke="#1D4ED8" stroke-width="1.15"/><rect x="38.35" y="37.30" width="2.40" height="1.23" rx="0.50" fill="rgba(255,255,255,0.28)"/>
<rect x="37.35" y="31.25" width="4.40" height="4.40" rx="1.00" fill="#5B8DEF" stroke="#1D4ED8" stroke-width="1.15"/><rect x="38.35" y="32.25" width="2.40" height="1.23" rx="0.50" fill="rgba(255,255,255,0.28)"/>
<rect x="37.35" y="26.20" width="4.40" height="4.40" rx="1.00" fill="#5B8DEF" stroke="#1D4ED8" stroke-width="1.15"/><rect x="38.35" y="27.20" width="2.40" height="1.23" rx="0.50" fill="rgba(255,255,255,0.28)"/>
<rect x="37.35" y="21.15" width="4.40" height="4.40" rx="1.00" fill="#5B8DEF" stroke="#1D4ED8" stroke-width="1.15"/><rect x="38.35" y="22.15" width="2.40" height="1.23" rx="0.50" fill="rgba(255,255,255,0.28)"/>
<rect x="37.35" y="16.10" width="4.40" height="4.40" rx="1.00" fill="#5B8DEF" stroke="#1D4ED8" stroke-width="1.15"/><rect x="38.35" y="17.10" width="2.40" height="1.23" rx="0.50" fill="rgba(255,255,255,0.28)"/>
<rect x="37.35" y="11.05" width="4.40" height="4.40" rx="1.00" fill="#5B8DEF" stroke="#1D4ED8" stroke-width="1.15"/><rect x="38.35" y="12.05" width="2.40" height="1.23" rx="0.50" fill="rgba(255,255,255,0.28)"/>
<rect x="42.40" y="46.40" width="4.40" height="4.40" rx="1.00" fill="#5B8DEF" stroke="#1D4ED8" stroke-width="1.15"/><rect x="43.40" y="47.40" width="2.40" height="1.23" rx="0.50" fill="rgba(255,255,255,0.28)"/>
<rect x="42.40" y="41.35" width="4.40" height="4.40" rx="1.00" fill="#5B8DEF" stroke="#1D4ED8" stroke-width="1.15"/><rect x="43.40" y="42.35" width="2.40" height="1.23" rx="0.50" fill="rgba(255,255,255,0.28)"/>
<rect x="42.40" y="36.30" width="4.40" height="4.40" rx="1.00" fill="#5B8DEF" stroke="#1D4ED8" stroke-width="1.15"/><rect x="43.40" y="37.30" width="2.40" height="1.23" rx="0.50" fill="rgba(255,255,255,0.28)"/>
<rect x="42.40" y="31.25" width="4.40" height="4.40" rx="1.00" fill="#5B8DEF" stroke="#1D4ED8" stroke-width="1.15"/><rect x="43.40" y="32.25" width="2.40" height="1.23" rx="0.50" fill="rgba(255,255,255,0.28)"/>
<rect x="42.40" y="26.20" width="4.40" height="4.40" rx="1.00" fill="#5B8DEF" stroke="#1D4ED8" stroke-width="1.15"/><rect x="43.40" y="27.20" width="2.40" height="1.23" rx="0.50" fill="rgba(255,255,255,0.28)"/>
<rect x="42.40" y="21.15" width="4.40" height="4.40" rx="1.00" fill="#5B8DEF" stroke="#1D4ED8" stroke-width="1.15"/><rect x="43.40" y="22.15" width="2.40" height="1.23" rx="0.50" fill="rgba(255,255,255,0.28)"/>
<rect x="42.40" y="16.10" width="4.40" height="4.40" rx="1.00" fill="#5B8DEF" stroke="#1D4ED8" stroke-width="1.15"/><rect x="43.40" y="17.10" width="2.40" height="1.23" rx="0.50" fill="rgba(255,255,255,0.28)"/>
<rect x="42.40" y="11.05" width="4.40" height="4.40" rx="1.00" fill="#5B8DEF" stroke="#1D4ED8" stroke-width="1.15"/><rect x="43.40" y="12.05" width="2.40" height="1.23" rx="0.50" fill="rgba(255,255,255,0.28)"/>
<rect x="42.40" y="6.00" width="4.40" height="4.40" rx="1.00" fill="#5B8DEF" stroke="#1D4ED8" stroke-width="1.15"/><rect x="43.40" y="7.00" width="2.40" height="1.23" rx="0.50" fill="rgba(255,255,255,0.28)"/><circle cx="21.7" cy="20.3" r="1.4" fill="#1E3A8A"/><text x="27.2" y="22.7" text-anchor="middle" font-size="9" fill="#FDE047">★</text><path d="M21.4 23.9 Q24.4 28.7 27.4 23.9" stroke="#1E3A8A" stroke-width="1.7" stroke-linecap="round" fill="none"/>
</svg>
