<svg xmlns="http://www.w3.org/2000/svg" width="42" height="86" viewBox="0 0 42 86">
<rect x="16.00" y="10.00" width="12.00" height="12.00" rx="1.68" fill="#5FE8F7" stroke="#1496B0" stroke-width="1.15"/><rect x="17.00" y="11.00" width="10.00" height="3.36" rx="0.84" fill="rgba(255,255,255,0.28)"/>
<rect x="16.00" y="23.40" width="12.00" height="12.00" rx="1.68" fill="#5FE8F7" stroke="#1496B0" stroke-width="1.15"/><rect x="17.00" y="24.40" width="10.00" height="3.36" rx="0.84" fill="rgba(255,255,255,0.28)"/>
<rect x="16.00" y="36.80" width="12.00" height="12.00" rx="1.68" fill="#5FE8F7" stroke="#1496B0" stroke-width="1.15"/><rect x="17.00" y="37.80" width="10.00" height="3.36" rx="0.84" fill="rgba(255,255,255,0.28)"/>
<rect x="16.00" y="50.20" width="12.00" height="12.00" rx="1.68" fill="#5FE8F7" stroke="#1496B0" stroke-width="1.15"/><rect x="17.00" y="51.20" width="10.00" height="3.36" rx="0.84" fill="rgba(255,255,255,0.28)"/>
<rect x="16.00" y="63.60" width="12.00" height="12.00" rx="1.68" fill="#5FE8F7" stroke="#1496B0" stroke-width="1.15"/><rect x="17.00" y="64.60" width="10.00" height="3.36" rx="0.84" fill="rgba(255,255,255,0.28)"/><circle cx="19.1" cy="14.8" r="1.9" fill="#1E3A8A"/><text x="24.9" y="17.2" text-anchor="middle" font-size="9" fill="#1E3A8A">★</text><path d="M18.8 19.4 Q22.0 24.2 25.2 19.4" stroke="#1E3A8A" stroke-width="1.7" stroke-linecap="round" fill="none"/><line x1="16" y1="38.14" x2="5" y2="28.759999999999998" stroke="#1E3A8A" stroke-width="2.3" stroke-linecap="round"/><circle cx="4" cy="27.42" r="3.8" fill="#1E3A8A"/><line x1="28" y1="40.81999999999999" x2="35" y2="48.86" stroke="#1E3A8A" stroke-width="2.3" stroke-linecap="round"/><line x1="19" y1="75.6" x2="19" y2="82.6" stroke="#1E3A8A" stroke-width="2.1" stroke-linecap="round"/><line x1="25" y1="75.6" x2="25" y2="82.6" stroke="#1E3A8A" stroke-width="2.1" stroke-linecap="round"/>
</svg>
