<svg xmlns="http://www.w3.org/2000/svg" width="44" height="64" viewBox="0 0 44 64">
<rect x="8.00" y="6.00" width="4.70" height="4.70" rx="1.00" fill="#5FE0F0" stroke="#0E7490" stroke-width="1.15"/><rect x="9.00" y="7.00" width="2.70" height="1.32" rx="0.50" fill="rgba(255,255,255,0.28)"/>
<rect x="13.35" y="6.00" width="4.70" height="4.70" rx="1.00" fill="#5FE0F0" stroke="#0E7490" stroke-width="1.15"/><rect x="14.35" y="7.00" width="2.70" height="1.32" rx="0.50" fill="rgba(255,255,255,0.28)"/>
<rect x="18.70" y="6.00" width="4.70" height="4.70" rx="1.00" fill="#5FE0F0" stroke="#0E7490" stroke-width="1.15"/><rect x="19.70" y="7.00" width="2.70" height="1.32" rx="0.50" fill="rgba(255,255,255,0.28)"/>
<rect x="24.05" y="6.00" width="4.70" height="4.70" rx="1.00" fill="#5FE0F0" stroke="#0E7490" stroke-width="1.15"/><rect x="25.05" y="7.00" width="2.70" height="1.32" rx="0.50" fill="rgba(255,255,255,0.28)"/>
<rect x="29.40" y="6.00" width="4.70" height="4.70" rx="1.00" fill="#5FE0F0" stroke="#0E7490" stroke-width="1.15"/><rect x="30.40" y="7.00" width="2.70" height="1.32" rx="0.50" fill="rgba(255,255,255,0.28)"/>
<rect x="8.00" y="11.35" width="4.70" height="4.70" rx="1.00" fill="#5FE0F0" stroke="#0E7490" stroke-width="1.15"/><rect x="9.00" y="12.35" width="2.70" height="1.32" rx="0.50" fill="rgba(255,255,255,0.28)"/>
<rect x="13.35" y="11.35" width="4.70" height="4.70" rx="1.00" fill="#5FE0F0" stroke="#0E7490" stroke-width="1.15"/><rect x="14.35" y="12.35" width="2.70" height="1.32" rx="0.50" fill="rgba(255,255,255,0.28)"/>
<rect x="18.70" y="11.35" width="4.70" height="4.70" rx="1.00" fill="#5FE0F0" stroke="#0E7490" stroke-width="1.15"/><rect x="19.70" y="12.35" width="2.70" height="1.32" rx="0.50" fill="rgba(255,255,255,0.28)"/>
<rect x="24.05" y="11.35" width="4.70" height="4.70" rx="1.00" fill="#5FE0F0" stroke="#0E7490" stroke-width="1.15"/><rect x="25.05" y="12.35" width="2.70" height="1.32" rx="0.50" fill="rgba(255,255,255,0.28)"/>
<rect x="29.40" y="11.35" width="4.70" height="4.70" rx="1.00" fill="#5FE0F0" stroke="#0E7490" stroke-width="1.15"/><rect x="30.40" y="12.35" width="2.70" height="1.32" rx="0.50" fill="rgba(255,255,255,0.28)"/>
<rect x="8.00" y="16.70" width="4.70" height="4.70" rx="1.00" fill="#5FE0F0" stroke="#0E7490" stroke-width="1.15"/><rect x="9.00" y="17.70" width="2.70" height="1.32" rx="0.50" fill="rgba(255,255,255,0.28)"/>
<rect x="13.35" y="16.70" width="4.70" height="4.70" rx="1.00" fill="#5FE0F0" stroke="#0E7490" stroke-width="1.15"/><rect x="14.35" y="17.70" width="2.70" height="1.32" rx="0.50" fill="rgba(255,255,255,0.28)"/>
<rect x="18.70" y="16.70" width="4.70" height="4.70" rx="1.00" fill="#5FE0F0" stroke="#0E7490" stroke-width="1.15"/><rect x="19.70" y="17.70" width="2.70" height="1.32" rx="0.50" fill="rgba(255,255,255,0.28)"/>
<rect x="24.05" y="16.70" width="4.70" height="4.70" rx="1.00" fill="#5FE0F0" stroke="#0E7490" stroke-width="1.15"/><rect x="25.05" y="17.70" width="2.70" height="1.32" rx="0.50" fill="rgba(255,255,255,0.28)"/>
<rect x="29.40" y="16.70" width="4.70" height="4.70" rx="1.00" fill="#5FE0F0" stroke="#0E7490" stroke-width="1.15"/><rect x="30.40" y="17.70" width="2.70" height="1.32" rx="0.50" fill="rgba(255,255,255,0.28)"/>
<rect x="8.00" y="22.05" width="4.70" height="4.70" rx="1.00" fill="#5FE0F0" stroke="#0E7490" stroke-width="1.15"/><rect x="9.00" y="23.05" width="2.70" height="1.32" rx="0.50" fill="rgba(255,255,255,0.28)"/>
<rect x="13.35" y="22.05" width="4.70" height="4.70" rx="1.00" fill="#5FE0F0" stroke="#0E7490" stroke-width="1.15"/><rect x="14.35" y="23.05" width="2.70" height="1.32" rx="0.50" fill="rgba(255,255,255,0.28)"/>
<rect x="18.70" y="22.05" width="4.70" height="4.70" rx="1.00" fill="#5FE0F0" stroke="#0E7490" stroke-width="1.15"/><rect x="19.70" y="23.05" width="2.70" height="1.32" rx="0.50" fill="rgba(255,255,255,0.28)"/>
<rect x="24.05" y="22.05" width="4.70" height="4.70" rx="1.00" fill="#5FE0F0" stroke="#0E7490" stroke-width="1.15"/><rect x="25.05" y="23.05" width="2.70" height="1.32" rx="0.50" fill="rgba(255,255,255,0.28)"/>
<rect x="29.40" y="22.05" width="4.70" height="4.70" rx="1.00" fill="#5FE0F0" stroke="#0E7490" stroke-width="1.15"/><rect x="30.40" y="23.05" width="2.70" height="1.32" rx="0.50" fill="rgba(255,255,255,0.28)"/>
<rect x="8.00" y="27.40" width="4.70" height="4.70" rx="1.00" fill="#5FE0F0" stroke="#0E7490" stroke-width="1.15"/><rect x="9.00" y="28.40" width="2.70" height="1.32" rx="0.50" fill="rgba(255,255,255,0.28)"/>
<rect x="13.35" y="27.40" width="4.70" height="4.70" rx="1.00" fill="#5FE0F0" stroke="#0E7490" stroke-width="1.15"/><rect x="14.35" y="28.40" width="2.70" height="1.32" rx="0.50" fill="rgba(255,255,255,0.28)"/>
<rect x="18.70" y="27.40" width="4.70" height="4.70" rx="1.00" fill="#5FE0F0" stroke="#0E7490" stroke-width="1.15"/><rect x="19.70" y="28.40" width="2.70" height="1.32" rx="0.50" fill="rgba(255,255,255,0.28)"/>
<rect x="24.05" y="27.40" width="4.70" height="4.70" rx="1.00" fill="#5FE0F0" stroke="#0E7490" stroke-width="1.15"/><rect x="25.05" y="28.40" width="2.70" height="1.32" rx="0.50" fill="rgba(255,255,255,0.28)"/>
<rect x="29.40" y="27.40" width="4.70" height="4.70" rx="1.00" fill="#5FE0F0" stroke="#0E7490" stroke-width="1.15"/><rect x="30.40" y="28.40" width="2.70" height="1.32" rx="0.50" fill="rgba(255,255,255,0.28)"/>
<rect x="8.00" y="32.75" width="4.70" height="4.70" rx="1.00" fill="#5FE0F0" stroke="#0E7490" stroke-width="1.15"/><rect x="9.00" y="33.75" width="2.70" height="1.32" rx="0.50" fill="rgba(255,255,255,0.28)"/>
<rect x="13.35" y="32.75" width="4.70" height="4.70" rx="1.00" fill="#5FE0F0" stroke="#0E7490" stroke-width="1.15"/><rect x="14.35" y="33.75" width="2.70" height="1.32" rx="0.50" fill="rgba(255,255,255,0.28)"/>
<rect x="18.70" y="32.75" width="4.70" height="4.70" rx="1.00" fill="#5FE0F0" stroke="#0E7490" stroke-width="1.15"/><rect x="19.70" y="33.75" width="2.70" height="1.32" rx="0.50" fill="rgba(255,255,255,0.28)"/>
<rect x="24.05" y="32.75" width="4.70" height="4.70" rx="1.00" fill="#5FE0F0" stroke="#0E7490" stroke-width="1.15"/><rect x="25.05" y="33.75" width="2.70" height="1.32" rx="0.50" fill="rgba(255,255,255,0.28)"/>
<rect x="29.40" y="32.75" width="4.70" height="4.70" rx="1.00" fill="#5FE0F0" stroke="#0E7490" stroke-width="1.15"/><rect x="30.40" y="33.75" width="2.70" height="1.32" rx="0.50" fill="rgba(255,255,255,0.28)"/>
<rect x="8.00" y="38.10" width="4.70" height="4.70" rx="1.00" fill="#5FE0F0" stroke="#0E7490" stroke-width="1.15"/><rect x="9.00" y="39.10" width="2.70" height="1.32" rx="0.50" fill="rgba(255,255,255,0.28)"/>
<rect x="13.35" y="38.10" width="4.70" height="4.70" rx="1.00" fill="#5FE0F0" stroke="#0E7490" stroke-width="1.15"/><rect x="14.35" y="39.10" width="2.70" height="1.32" rx="0.50" fill="rgba(255,255,255,0.28)"/>
<rect x="18.70" y="38.10" width="4.70" height="4.70" rx="1.00" fill="#5FE0F0" stroke="#0E7490" stroke-width="1.15"/><rect x="19.70" y="39.10" width="2.70" height="1.32" rx="0.50" fill="rgba(255,255,255,0.28)"/>
<rect x="24.05" y="38.10" width="4.70" height="4.70" rx="1.00" fill="#5FE0F0" stroke="#0E7490" stroke-width="1.15"/><rect x="25.05" y="39.10" width="2.70" height="1.32" rx="0.50" fill="rgba(255,255,255,0.28)"/>
<rect x="29.40" y="38.10" width="4.70" height="4.70" rx="1.00" fill="#5FE0F0" stroke="#0E7490" stroke-width="1.15"/><rect x="30.40" y="39.10" width="2.70" height="1.32" rx="0.50" fill="rgba(255,255,255,0.28)"/>
<rect x="8.00" y="43.45" width="4.70" height="4.70" rx="1.00" fill="#5FE0F0" stroke="#0E7490" stroke-width="1.15"/><rect x="9.00" y="44.45" width="2.70" height="1.32" rx="0.50" fill="rgba(255,255,255,0.28)"/>
<rect x="13.35" y="43.45" width="4.70" height="4.70" rx="1.00" fill="#5FE0F0" stroke="#0E7490" stroke-width="1.15"/><rect x="14.35" y="44.45" width="2.70" height="1.32" rx="0.50" fill="rgba(255,255,255,0.28)"/>
<rect x="18.70" y="43.45" width="4.70" height="4.70" rx="1.00" fill="#5FE0F0" stroke="#0E7490" stroke-width="1.15"/><rect x="19.70" y="44.45" width="2.70" height="1.32" rx="0.50" fill="rgba(255,255,255,0.28)"/>
<rect x="24.05" y="43.45" width="4.70" height="4.70" rx="1.00" fill="#5FE0F0" stroke="#0E7490" stroke-width="1.15"/><rect x="25.05" y="44.45" width="2.70" height="1.32" rx="0.50" fill="rgba(255,255,255,0.28)"/>
<rect x="29.40" y="43.45" width="4.70" height="4.70" rx="1.00" fill="#5FE0F0" stroke="#0E7490" stroke-width="1.15"/><rect x="30.40" y="44.45" width="2.70" height="1.32" rx="0.50" fill="rgba(255,255,255,0.28)"/>
<rect x="8.00" y="48.80" width="4.70" height="4.70" rx="1.00" fill="#5FE0F0" stroke="#0E7490" stroke-width="1.15"/><rect x="9.00" y="49.80" width="2.70" height="1.32" rx="0.50" fill="rgba(255,255,255,0.28)"/>
<rect x="13.35" y="48.80" width="4.70" height="4.70" rx="1.00" fill="#5FE0F0" stroke="#0E7490" stroke-width="1.15"/><rect x="14.35" y="49.80" width="2.70" height="1.32" rx="0.50" fill="rgba(255,255,255,0.28)"/>
<rect x="18.70" y="48.80" width="4.70" height="4.70" rx="1.00" fill="#5FE0F0" stroke="#0E7490" stroke-width="1.15"/><rect x="19.70" y="49.80" width="2.70" height="1.32" rx="0.50" fill="rgba(255,255,255,0.28)"/>
<rect x="24.05" y="48.80" width="4.70" height="4.70" rx="1.00" fill="#5FE0F0" stroke="#0E7490" stroke-width="1.15"/><rect x="25.05" y="49.80" width="2.70" height="1.32" rx="0.50" fill="rgba(255,255,255,0.28)"/>
<rect x="29.40" y="48.80" width="4.70" height="4.70" rx="1.00" fill="#5FE0F0" stroke="#0E7490" stroke-width="1.15"/><rect x="30.40" y="49.80" width="2.70" height="1.32" rx="0.50" fill="rgba(255,255,255,0.28)"/>
<rect x="8.00" y="54.15" width="4.70" height="4.70" rx="1.00" fill="#5FE0F0" stroke="#0E7490" stroke-width="1.15"/><rect x="9.00" y="55.15" width="2.70" height="1.32" rx="0.50" fill="rgba(255,255,255,0.28)"/>
<rect x="13.35" y="54.15" width="4.70" height="4.70" rx="1.00" fill="#5FE0F0" stroke="#0E7490" stroke-width="1.15"/><rect x="14.35" y="55.15" width="2.70" height="1.32" rx="0.50" fill="rgba(255,255,255,0.28)"/>
<rect x="18.70" y="54.15" width="4.70" height="4.70" rx="1.00" fill="#5FE0F0" stroke="#0E7490" stroke-width="1.15"/><rect x="19.70" y="55.15" width="2.70" height="1.32" rx="0.50" fill="rgba(255,255,255,0.28)"/>
<rect x="24.05" y="54.15" width="4.70" height="4.70" rx="1.00" fill="#5FE0F0" stroke="#0E7490" stroke-width="1.15"/><rect x="25.05" y="55.15" width="2.70" height="1.32" rx="0.50" fill="rgba(255,255,255,0.28)"/>
<rect x="29.40" y="54.15" width="4.70" height="4.70" rx="1.00" fill="#5FE0F0" stroke="#0E7490" stroke-width="1.15"/><rect x="30.40" y="55.15" width="2.70" height="1.32" rx="0.50" fill="rgba(255,255,255,0.28)"/><circle cx="17.8" cy="8.1" r="1.5" fill="#1E3A8A"/><text x="24.3" y="10.5" text-anchor="middle" font-size="9" fill="#FDE047">★</text><path d="M17.6 10.9 Q21.1 15.7 24.6 10.9" stroke="#1E3A8A" stroke-width="1.7" stroke-linecap="round" fill="none"/>
</svg>
