<svg xmlns="http://www.w3.org/2000/svg" width="50" height="54" viewBox="0 0 50 54">
<rect x="1.00" y="45.95" width="4.00" height="4.00" rx="1.00" fill="#A78BFA" stroke="#6D28D9" stroke-width="1.15"/><rect x="2.00" y="46.95" width="2.00" height="1.12" rx="0.50" fill="rgba(255,255,255,0.28)"/>
<rect x="5.55" y="45.95" width="4.00" height="4.00" rx="1.00" fill="#A78BFA" stroke="#6D28D9" stroke-width="1.15"/><rect x="6.55" y="46.95" width="2.00" height="1.12" rx="0.50" fill="rgba(255,255,255,0.28)"/>
<rect x="5.55" y="41.40" width="4.00" height="4.00" rx="1.00" fill="#A78BFA" stroke="#6D28D9" stroke-width="1.15"/><rect x="6.55" y="42.40" width="2.00" height="1.12" rx="0.50" fill="rgba(255,255,255,0.28)"/>
<rect x="10.10" y="45.95" width="4.00" height="4.00" rx="1.00" fill="#A78BFA" stroke="#6D28D9" stroke-width="1.15"/><rect x="11.10" y="46.95" width="2.00" height="1.12" rx="0.50" fill="rgba(255,255,255,0.28)"/>
<rect x="10.10" y="41.40" width="4.00" height="4.00" rx="1.00" fill="#A78BFA" stroke="#6D28D9" stroke-width="1.15"/><rect x="11.10" y="42.40" width="2.00" height="1.12" rx="0.50" fill="rgba(255,255,255,0.28)"/>
<rect x="10.10" y="36.85" width="4.00" height="4.00" rx="1.00" fill="#A78BFA" stroke="#6D28D9" stroke-width="1.15"/><rect x="11.10" y="37.85" width="2.00" height="1.12" rx="0.50" fill="rgba(255,255,255,0.28)"/>
<rect x="14.65" y="45.95" width="4.00" height="4.00" rx="1.00" fill="#A78BFA" stroke="#6D28D9" stroke-width="1.15"/><rect x="15.65" y="46.95" width="2.00" height="1.12" rx="0.50" fill="rgba(255,255,255,0.28)"/>
<rect x="14.65" y="41.40" width="4.00" height="4.00" rx="1.00" fill="#A78BFA" stroke="#6D28D9" stroke-width="1.15"/><rect x="15.65" y="42.40" width="2.00" height="1.12" rx="0.50" fill="rgba(255,255,255,0.28)"/>
<rect x="14.65" y="36.85" width="4.00" height="4.00" rx="1.00" fill="#A78BFA" stroke="#6D28D9" stroke-width="1.15"/><rect x="15.65" y="37.85" width="2.00" height="1.12" rx="0.50" fill="rgba(255,255,255,0.28)"/>
<rect x="14.65" y="32.30" width="4.00" height="4.00" rx="1.00" fill="#A78BFA" stroke="#6D28D9" stroke-width="1.15"/><rect x="15.65" y="33.30" width="2.00" height="1.12" rx="0.50" fill="rgba(255,255,255,0.28)"/>
<rect x="19.20" y="45.95" width="4.00" height="4.00" rx="1.00" fill="#A78BFA" stroke="#6D28D9" stroke-width="1.15"/><rect x="20.20" y="46.95" width="2.00" height="1.12" rx="0.50" fill="rgba(255,255,255,0.28)"/>
<rect x="19.20" y="41.40" width="4.00" height="4.00" rx="1.00" fill="#A78BFA" stroke="#6D28D9" stroke-width="1.15"/><rect x="20.20" y="42.40" width="2.00" height="1.12" rx="0.50" fill="rgba(255,255,255,0.28)"/>
<rect x="19.20" y="36.85" width="4.00" height="4.00" rx="1.00" fill="#A78BFA" stroke="#6D28D9" stroke-width="1.15"/><rect x="20.20" y="37.85" width="2.00" height="1.12" rx="0.50" fill="rgba(255,255,255,0.28)"/>
<rect x="19.20" y="32.30" width="4.00" height="4.00" rx="1.00" fill="#A78BFA" stroke="#6D28D9" stroke-width="1.15"/><rect x="20.20" y="33.30" width="2.00" height="1.12" rx="0.50" fill="rgba(255,255,255,0.28)"/>
<rect x="19.20" y="27.75" width="4.00" height="4.00" rx="1.00" fill="#A78BFA" stroke="#6D28D9" stroke-width="1.15"/><rect x="20.20" y="28.75" width="2.00" height="1.12" rx="0.50" fill="rgba(255,255,255,0.28)"/>
<rect x="23.75" y="45.95" width="4.00" height="4.00" rx="1.00" fill="#A78BFA" stroke="#6D28D9" stroke-width="1.15"/><rect x="24.75" y="46.95" width="2.00" height="1.12" rx="0.50" fill="rgba(255,255,255,0.28)"/>
<rect x="23.75" y="41.40" width="4.00" height="4.00" rx="1.00" fill="#A78BFA" stroke="#6D28D9" stroke-width="1.15"/><rect x="24.75" y="42.40" width="2.00" height="1.12" rx="0.50" fill="rgba(255,255,255,0.28)"/>
<rect x="23.75" y="36.85" width="4.00" height="4.00" rx="1.00" fill="#A78BFA" stroke="#6D28D9" stroke-width="1.15"/><rect x="24.75" y="37.85" width="2.00" height="1.12" rx="0.50" fill="rgba(255,255,255,0.28)"/>
<rect x="23.75" y="32.30" width="4.00" height="4.00" rx="1.00" fill="#A78BFA" stroke="#6D28D9" stroke-width="1.15"/><rect x="24.75" y="33.30" width="2.00" height="1.12" rx="0.50" fill="rgba(255,255,255,0.28)"/>
<rect x="23.75" y="27.75" width="4.00" height="4.00" rx="1.00" fill="#A78BFA" stroke="#6D28D9" stroke-width="1.15"/><rect x="24.75" y="28.75" width="2.00" height="1.12" rx="0.50" fill="rgba(255,255,255,0.28)"/>
<rect x="23.75" y="23.20" width="4.00" height="4.00" rx="1.00" fill="#A78BFA" stroke="#6D28D9" stroke-width="1.15"/><rect x="24.75" y="24.20" width="2.00" height="1.12" rx="0.50" fill="rgba(255,255,255,0.28)"/>
<rect x="28.30" y="45.95" width="4.00" height="4.00" rx="1.00" fill="#A78BFA" stroke="#6D28D9" stroke-width="1.15"/><rect x="29.30" y="46.95" width="2.00" height="1.12" rx="0.50" fill="rgba(255,255,255,0.28)"/>
<rect x="28.30" y="41.40" width="4.00" height="4.00" rx="1.00" fill="#A78BFA" stroke="#6D28D9" stroke-width="1.15"/><rect x="29.30" y="42.40" width="2.00" height="1.12" rx="0.50" fill="rgba(255,255,255,0.28)"/>
<rect x="28.30" y="36.85" width="4.00" height="4.00" rx="1.00" fill="#A78BFA" stroke="#6D28D9" stroke-width="1.15"/><rect x="29.30" y="37.85" width="2.00" height="1.12" rx="0.50" fill="rgba(255,255,255,0.28)"/>
<rect x="28.30" y="32.30" width="4.00" height="4.00" rx="1.00" fill="#A78BFA" stroke="#6D28D9" stroke-width="1.15"/><rect x="29.30" y="33.30" width="2.00" height="1.12" rx="0.50" fill="rgba(255,255,255,0.28)"/>
<rect x="28.30" y="27.75" width="4.00" height="4.00" rx="1.00" fill="#A78BFA" stroke="#6D28D9" stroke-width="1.15"/><rect x="29.30" y="28.75" width="2.00" height="1.12" rx="0.50" fill="rgba(255,255,255,0.28)"/>
<rect x="28.30" y="23.20" width="4.00" height="4.00" rx="1.00" fill="#A78BFA" stroke="#6D28D9" stroke-width="1.15"/><rect x="29.30" y="24.20" width="2.00" height="1.12" rx="0.50" fill="rgba(255,255,255,0.28)"/>
<rect x="28.30" y="18.65" width="4.00" height="4.00" rx="1.00" fill="#A78BFA" stroke="#6D28D9" stroke-width="1.15"/><rect x="29.30" y="19.65" width="2.00" height="1.12" rx="0.50" fill="rgba(255,255,255,0.28)"/>
<rect x="32.85" y="45.95" width="4.00" height="4.00" rx="1.00" fill="#A78BFA" stroke="#6D28D9" stroke-width="1.15"/><rect x="33.85" y="46.95" width="2.00" height="1.12" rx="0.50" fill="rgba(255,255,255,0.28)"/>
<rect x="32.85" y="41.40" width="4.00" height="4.00" rx="1.00" fill="#A78BFA" stroke="#6D28D9" stroke-width="1.15"/><rect x="33.85" y="42.40" width="2.00" height="1.12" rx="0.50" fill="rgba(255,255,255,0.28)"/>
<rect x="32.85" y="36.85" width="4.00" height="4.00" rx="1.00" fill="#A78BFA" stroke="#6D28D9" stroke-width="1.15"/><rect x="33.85" y="37.85" width="2.00" height="1.12" rx="0.50" fill="rgba(255,255,255,0.28)"/>
<rect x="32.85" y="32.30" width="4.00" height="4.00" rx="1.00" fill="#A78BFA" stroke="#6D28D9" stroke-width="1.15"/><rect x="33.85" y="33.30" width="2.00" height="1.12" rx="0.50" fill="rgba(255,255,255,0.28)"/>
<rect x="32.85" y="27.75" width="4.00" height="4.00" rx="1.00" fill="#A78BFA" stroke="#6D28D9" stroke-width="1.15"/><rect x="33.85" y="28.75" width="2.00" height="1.12" rx="0.50" fill="rgba(255,255,255,0.28)"/>
<rect x="32.85" y="23.20" width="4.00" height="4.00" rx="1.00" fill="#A78BFA" stroke="#6D28D9" stroke-width="1.15"/><rect x="33.85" y="24.20" width="2.00" height="1.12" rx="0.50" fill="rgba(255,255,255,0.28)"/>
<rect x="32.85" y="18.65" width="4.00" height="4.00" rx="1.00" fill="#A78BFA" stroke="#6D28D9" stroke-width="1.15"/><rect x="33.85" y="19.65" width="2.00" height="1.12" rx="0.50" fill="rgba(255,255,255,0.28)"/>
<rect x="32.85" y="14.10" width="4.00" height="4.00" rx="1.00" fill="#A78BFA" stroke="#6D28D9" stroke-width="1.15"/><rect x="33.85" y="15.10" width="2.00" height="1.12" rx="0.50" fill="rgba(255,255,255,0.28)"/>
<rect x="37.40" y="45.95" width="4.00" height="4.00" rx="1.00" fill="#A78BFA" stroke="#6D28D9" stroke-width="1.15"/><rect x="38.40" y="46.95" width="2.00" height="1.12" rx="0.50" fill="rgba(255,255,255,0.28)"/>
<rect x="37.40" y="41.40" width="4.00" height="4.00" rx="1.00" fill="#A78BFA" stroke="#6D28D9" stroke-width="1.15"/><rect x="38.40" y="42.40" width="2.00" height="1.12" rx="0.50" fill="rgba(255,255,255,0.28)"/>
<rect x="37.40" y="36.85" width="4.00" height="4.00" rx="1.00" fill="#A78BFA" stroke="#6D28D9" stroke-width="1.15"/><rect x="38.40" y="37.85" width="2.00" height="1.12" rx="0.50" fill="rgba(255,255,255,0.28)"/>
<rect x="37.40" y="32.30" width="4.00" height="4.00" rx="1.00" fill="#A78BFA" stroke="#6D28D9" stroke-width="1.15"/><rect x="38.40" y="33.30" width="2.00" height="1.12" rx="0.50" fill="rgba(255,255,255,0.28)"/>
<rect x="37.40" y="27.75" width="4.00" height="4.00" rx="1.00" fill="#A78BFA" stroke="#6D28D9" stroke-width="1.15"/><rect x="38.40" y="28.75" width="2.00" height="1.12" rx="0.50" fill="rgba(255,255,255,0.28)"/>
<rect x="37.40" y="23.20" width="4.00" height="4.00" rx="1.00" fill="#A78BFA" stroke="#6D28D9" stroke-width="1.15"/><rect x="38.40" y="24.20" width="2.00" height="1.12" rx="0.50" fill="rgba(255,255,255,0.28)"/>
<rect x="37.40" y="18.65" width="4.00" height="4.00" rx="1.00" fill="#A78BFA" stroke="#6D28D9" stroke-width="1.15"/><rect x="38.40" y="19.65" width="2.00" height="1.12" rx="0.50" fill="rgba(255,255,255,0.28)"/>
<rect x="37.40" y="14.10" width="4.00" height="4.00" rx="1.00" fill="#A78BFA" stroke="#6D28D9" stroke-width="1.15"/><rect x="38.40" y="15.10" width="2.00" height="1.12" rx="0.50" fill="rgba(255,255,255,0.28)"/>
<rect x="37.40" y="9.55" width="4.00" height="4.00" rx="1.00" fill="#A78BFA" stroke="#6D28D9" stroke-width="1.15"/><rect x="38.40" y="10.55" width="2.00" height="1.12" rx="0.50" fill="rgba(255,255,255,0.28)"/>
<rect x="41.95" y="45.95" width="4.00" height="4.00" rx="1.00" fill="#A78BFA" stroke="#6D28D9" stroke-width="1.15"/><rect x="42.95" y="46.95" width="2.00" height="1.12" rx="0.50" fill="rgba(255,255,255,0.28)"/>
<rect x="41.95" y="41.40" width="4.00" height="4.00" rx="1.00" fill="#A78BFA" stroke="#6D28D9" stroke-width="1.15"/><rect x="42.95" y="42.40" width="2.00" height="1.12" rx="0.50" fill="rgba(255,255,255,0.28)"/>
<rect x="41.95" y="36.85" width="4.00" height="4.00" rx="1.00" fill="#A78BFA" stroke="#6D28D9" stroke-width="1.15"/><rect x="42.95" y="37.85" width="2.00" height="1.12" rx="0.50" fill="rgba(255,255,255,0.28)"/>
<rect x="41.95" y="32.30" width="4.00" height="4.00" rx="1.00" fill="#A78BFA" stroke="#6D28D9" stroke-width="1.15"/><rect x="42.95" y="33.30" width="2.00" height="1.12" rx="0.50" fill="rgba(255,255,255,0.28)"/>
<rect x="41.95" y="27.75" width="4.00" height="4.00" rx="1.00" fill="#A78BFA" stroke="#6D28D9" stroke-width="1.15"/><rect x="42.95" y="28.75" width="2.00" height="1.12" rx="0.50" fill="rgba(255,255,255,0.28)"/>
<rect x="41.95" y="23.20" width="4.00" height="4.00" rx="1.00" fill="#A78BFA" stroke="#6D28D9" stroke-width="1.15"/><rect x="42.95" y="24.20" width="2.00" height="1.12" rx="0.50" fill="rgba(255,255,255,0.28)"/>
<rect x="41.95" y="18.65" width="4.00" height="4.00" rx="1.00" fill="#A78BFA" stroke="#6D28D9" stroke-width="1.15"/><rect x="42.95" y="19.65" width="2.00" height="1.12" rx="0.50" fill="rgba(255,255,255,0.28)"/>
<rect x="41.95" y="14.10" width="4.00" height="4.00" rx="1.00" fill="#A78BFA" stroke="#6D28D9" stroke-width="1.15"/><rect x="42.95" y="15.10" width="2.00" height="1.12" rx="0.50" fill="rgba(255,255,255,0.28)"/>
<rect x="41.95" y="9.55" width="4.00" height="4.00" rx="1.00" fill="#A78BFA" stroke="#6D28D9" stroke-width="1.15"/><rect x="42.95" y="10.55" width="2.00" height="1.12" rx="0.50" fill="rgba(255,255,255,0.28)"/>
<rect x="41.95" y="5.00" width="4.00" height="4.00" rx="1.00" fill="#A78BFA" stroke="#6D28D9" stroke-width="1.15"/><rect x="42.95" y="6.00" width="2.00" height="1.12" rx="0.50" fill="rgba(255,255,255,0.28)"/><text x="20.7" y="19.8" text-anchor="middle" font-size="8" fill="#EF4444">★</text><text x="26.2" y="19.8" text-anchor="middle" font-size="8" fill="#EF4444">★</text><path d="M20.5 21.0 Q23.5 25.8 26.5 21.0" stroke="#6D28D9" stroke-width="1.7" stroke-linecap="round" fill="none"/>
</svg>
