<svg xmlns="http://www.w3.org/2000/svg" width="44" height="58" viewBox="0 0 44 58">
<rect x="4.00" y="5.00" width="4.20" height="4.20" rx="1.00" fill="#8B5CF6" stroke="#5B21B6" stroke-width="1.15"/><rect x="5.00" y="6.00" width="2.20" height="1.18" rx="0.50" fill="rgba(255,255,255,0.28)"/>
<rect x="8.75" y="5.00" width="4.20" height="4.20" rx="1.00" fill="#8B5CF6" stroke="#5B21B6" stroke-width="1.15"/><rect x="9.75" y="6.00" width="2.20" height="1.18" rx="0.50" fill="rgba(255,255,255,0.28)"/>
<rect x="13.50" y="5.00" width="4.20" height="4.20" rx="1.00" fill="#8B5CF6" stroke="#5B21B6" stroke-width="1.15"/><rect x="14.50" y="6.00" width="2.20" height="1.18" rx="0.50" fill="rgba(255,255,255,0.28)"/>
<rect x="18.25" y="5.00" width="4.20" height="4.20" rx="1.00" fill="#8B5CF6" stroke="#5B21B6" stroke-width="1.15"/><rect x="19.25" y="6.00" width="2.20" height="1.18" rx="0.50" fill="rgba(255,255,255,0.28)"/>
<rect x="23.00" y="5.00" width="4.20" height="4.20" rx="1.00" fill="#8B5CF6" stroke="#5B21B6" stroke-width="1.15"/><rect x="24.00" y="6.00" width="2.20" height="1.18" rx="0.50" fill="rgba(255,255,255,0.28)"/>
<rect x="27.75" y="5.00" width="4.20" height="4.20" rx="1.00" fill="#8B5CF6" stroke="#5B21B6" stroke-width="1.15"/><rect x="28.75" y="6.00" width="2.20" height="1.18" rx="0.50" fill="rgba(255,255,255,0.28)"/>
<rect x="4.00" y="9.75" width="4.20" height="4.20" rx="1.00" fill="#8B5CF6" stroke="#5B21B6" stroke-width="1.15"/><rect x="5.00" y="10.75" width="2.20" height="1.18" rx="0.50" fill="rgba(255,255,255,0.28)"/>
<rect x="8.75" y="9.75" width="4.20" height="4.20" rx="1.00" fill="#8B5CF6" stroke="#5B21B6" stroke-width="1.15"/><rect x="9.75" y="10.75" width="2.20" height="1.18" rx="0.50" fill="rgba(255,255,255,0.28)"/>
<rect x="13.50" y="9.75" width="4.20" height="4.20" rx="1.00" fill="#8B5CF6" stroke="#5B21B6" stroke-width="1.15"/><rect x="14.50" y="10.75" width="2.20" height="1.18" rx="0.50" fill="rgba(255,255,255,0.28)"/>
<rect x="18.25" y="9.75" width="4.20" height="4.20" rx="1.00" fill="#8B5CF6" stroke="#5B21B6" stroke-width="1.15"/><rect x="19.25" y="10.75" width="2.20" height="1.18" rx="0.50" fill="rgba(255,255,255,0.28)"/>
<rect x="23.00" y="9.75" width="4.20" height="4.20" rx="1.00" fill="#8B5CF6" stroke="#5B21B6" stroke-width="1.15"/><rect x="24.00" y="10.75" width="2.20" height="1.18" rx="0.50" fill="rgba(255,255,255,0.28)"/>
<rect x="27.75" y="9.75" width="4.20" height="4.20" rx="1.00" fill="#8B5CF6" stroke="#5B21B6" stroke-width="1.15"/><rect x="28.75" y="10.75" width="2.20" height="1.18" rx="0.50" fill="rgba(255,255,255,0.28)"/>
<rect x="4.00" y="14.50" width="4.20" height="4.20" rx="1.00" fill="#8B5CF6" stroke="#5B21B6" stroke-width="1.15"/><rect x="5.00" y="15.50" width="2.20" height="1.18" rx="0.50" fill="rgba(255,255,255,0.28)"/>
<rect x="8.75" y="14.50" width="4.20" height="4.20" rx="1.00" fill="#8B5CF6" stroke="#5B21B6" stroke-width="1.15"/><rect x="9.75" y="15.50" width="2.20" height="1.18" rx="0.50" fill="rgba(255,255,255,0.28)"/>
<rect x="13.50" y="14.50" width="4.20" height="4.20" rx="1.00" fill="#8B5CF6" stroke="#5B21B6" stroke-width="1.15"/><rect x="14.50" y="15.50" width="2.20" height="1.18" rx="0.50" fill="rgba(255,255,255,0.28)"/>
<rect x="18.25" y="14.50" width="4.20" height="4.20" rx="1.00" fill="#8B5CF6" stroke="#5B21B6" stroke-width="1.15"/><rect x="19.25" y="15.50" width="2.20" height="1.18" rx="0.50" fill="rgba(255,255,255,0.28)"/>
<rect x="23.00" y="14.50" width="4.20" height="4.20" rx="1.00" fill="#8B5CF6" stroke="#5B21B6" stroke-width="1.15"/><rect x="24.00" y="15.50" width="2.20" height="1.18" rx="0.50" fill="rgba(255,255,255,0.28)"/>
<rect x="27.75" y="14.50" width="4.20" height="4.20" rx="1.00" fill="#8B5CF6" stroke="#5B21B6" stroke-width="1.15"/><rect x="28.75" y="15.50" width="2.20" height="1.18" rx="0.50" fill="rgba(255,255,255,0.28)"/>
<rect x="4.00" y="19.25" width="4.20" height="4.20" rx="1.00" fill="#8B5CF6" stroke="#5B21B6" stroke-width="1.15"/><rect x="5.00" y="20.25" width="2.20" height="1.18" rx="0.50" fill="rgba(255,255,255,0.28)"/>
<rect x="8.75" y="19.25" width="4.20" height="4.20" rx="1.00" fill="#8B5CF6" stroke="#5B21B6" stroke-width="1.15"/><rect x="9.75" y="20.25" width="2.20" height="1.18" rx="0.50" fill="rgba(255,255,255,0.28)"/>
<rect x="13.50" y="19.25" width="4.20" height="4.20" rx="1.00" fill="#8B5CF6" stroke="#5B21B6" stroke-width="1.15"/><rect x="14.50" y="20.25" width="2.20" height="1.18" rx="0.50" fill="rgba(255,255,255,0.28)"/>
<rect x="18.25" y="19.25" width="4.20" height="4.20" rx="1.00" fill="#8B5CF6" stroke="#5B21B6" stroke-width="1.15"/><rect x="19.25" y="20.25" width="2.20" height="1.18" rx="0.50" fill="rgba(255,255,255,0.28)"/>
<rect x="23.00" y="19.25" width="4.20" height="4.20" rx="1.00" fill="#8B5CF6" stroke="#5B21B6" stroke-width="1.15"/><rect x="24.00" y="20.25" width="2.20" height="1.18" rx="0.50" fill="rgba(255,255,255,0.28)"/>
<rect x="27.75" y="19.25" width="4.20" height="4.20" rx="1.00" fill="#8B5CF6" stroke="#5B21B6" stroke-width="1.15"/><rect x="28.75" y="20.25" width="2.20" height="1.18" rx="0.50" fill="rgba(255,255,255,0.28)"/>
<rect x="4.00" y="24.00" width="4.20" height="4.20" rx="1.00" fill="#8B5CF6" stroke="#5B21B6" stroke-width="1.15"/><rect x="5.00" y="25.00" width="2.20" height="1.18" rx="0.50" fill="rgba(255,255,255,0.28)"/>
<rect x="8.75" y="24.00" width="4.20" height="4.20" rx="1.00" fill="#8B5CF6" stroke="#5B21B6" stroke-width="1.15"/><rect x="9.75" y="25.00" width="2.20" height="1.18" rx="0.50" fill="rgba(255,255,255,0.28)"/>
<rect x="13.50" y="24.00" width="4.20" height="4.20" rx="1.00" fill="#8B5CF6" stroke="#5B21B6" stroke-width="1.15"/><rect x="14.50" y="25.00" width="2.20" height="1.18" rx="0.50" fill="rgba(255,255,255,0.28)"/>
<rect x="18.25" y="24.00" width="4.20" height="4.20" rx="1.00" fill="#8B5CF6" stroke="#5B21B6" stroke-width="1.15"/><rect x="19.25" y="25.00" width="2.20" height="1.18" rx="0.50" fill="rgba(255,255,255,0.28)"/>
<rect x="23.00" y="24.00" width="4.20" height="4.20" rx="1.00" fill="#8B5CF6" stroke="#5B21B6" stroke-width="1.15"/><rect x="24.00" y="25.00" width="2.20" height="1.18" rx="0.50" fill="rgba(255,255,255,0.28)"/>
<rect x="27.75" y="24.00" width="4.20" height="4.20" rx="1.00" fill="#8B5CF6" stroke="#5B21B6" stroke-width="1.15"/><rect x="28.75" y="25.00" width="2.20" height="1.18" rx="0.50" fill="rgba(255,255,255,0.28)"/>
<rect x="4.00" y="28.75" width="4.20" height="4.20" rx="1.00" fill="#8B5CF6" stroke="#5B21B6" stroke-width="1.15"/><rect x="5.00" y="29.75" width="2.20" height="1.18" rx="0.50" fill="rgba(255,255,255,0.28)"/>
<rect x="8.75" y="28.75" width="4.20" height="4.20" rx="1.00" fill="#8B5CF6" stroke="#5B21B6" stroke-width="1.15"/><rect x="9.75" y="29.75" width="2.20" height="1.18" rx="0.50" fill="rgba(255,255,255,0.28)"/>
<rect x="13.50" y="28.75" width="4.20" height="4.20" rx="1.00" fill="#8B5CF6" stroke="#5B21B6" stroke-width="1.15"/><rect x="14.50" y="29.75" width="2.20" height="1.18" rx="0.50" fill="rgba(255,255,255,0.28)"/>
<rect x="18.25" y="28.75" width="4.20" height="4.20" rx="1.00" fill="#8B5CF6" stroke="#5B21B6" stroke-width="1.15"/><rect x="19.25" y="29.75" width="2.20" height="1.18" rx="0.50" fill="rgba(255,255,255,0.28)"/>
<rect x="23.00" y="28.75" width="4.20" height="4.20" rx="1.00" fill="#8B5CF6" stroke="#5B21B6" stroke-width="1.15"/><rect x="24.00" y="29.75" width="2.20" height="1.18" rx="0.50" fill="rgba(255,255,255,0.28)"/>
<rect x="27.75" y="28.75" width="4.20" height="4.20" rx="1.00" fill="#8B5CF6" stroke="#5B21B6" stroke-width="1.15"/><rect x="28.75" y="29.75" width="2.20" height="1.18" rx="0.50" fill="rgba(255,255,255,0.28)"/>
<rect x="4.00" y="33.50" width="4.20" height="4.20" rx="1.00" fill="#8B5CF6" stroke="#5B21B6" stroke-width="1.15"/><rect x="5.00" y="34.50" width="2.20" height="1.18" rx="0.50" fill="rgba(255,255,255,0.28)"/>
<rect x="8.75" y="33.50" width="4.20" height="4.20" rx="1.00" fill="#8B5CF6" stroke="#5B21B6" stroke-width="1.15"/><rect x="9.75" y="34.50" width="2.20" height="1.18" rx="0.50" fill="rgba(255,255,255,0.28)"/>
<rect x="13.50" y="33.50" width="4.20" height="4.20" rx="1.00" fill="#8B5CF6" stroke="#5B21B6" stroke-width="1.15"/><rect x="14.50" y="34.50" width="2.20" height="1.18" rx="0.50" fill="rgba(255,255,255,0.28)"/>
<rect x="18.25" y="33.50" width="4.20" height="4.20" rx="1.00" fill="#8B5CF6" stroke="#5B21B6" stroke-width="1.15"/><rect x="19.25" y="34.50" width="2.20" height="1.18" rx="0.50" fill="rgba(255,255,255,0.28)"/>
<rect x="23.00" y="33.50" width="4.20" height="4.20" rx="1.00" fill="#8B5CF6" stroke="#5B21B6" stroke-width="1.15"/><rect x="24.00" y="34.50" width="2.20" height="1.18" rx="0.50" fill="rgba(255,255,255,0.28)"/>
<rect x="27.75" y="33.50" width="4.20" height="4.20" rx="1.00" fill="#8B5CF6" stroke="#5B21B6" stroke-width="1.15"/><rect x="28.75" y="34.50" width="2.20" height="1.18" rx="0.50" fill="rgba(255,255,255,0.28)"/>
<rect x="4.00" y="38.25" width="4.20" height="4.20" rx="1.00" fill="#8B5CF6" stroke="#5B21B6" stroke-width="1.15"/><rect x="5.00" y="39.25" width="2.20" height="1.18" rx="0.50" fill="rgba(255,255,255,0.28)"/>
<rect x="8.75" y="38.25" width="4.20" height="4.20" rx="1.00" fill="#8B5CF6" stroke="#5B21B6" stroke-width="1.15"/><rect x="9.75" y="39.25" width="2.20" height="1.18" rx="0.50" fill="rgba(255,255,255,0.28)"/>
<rect x="13.50" y="38.25" width="4.20" height="4.20" rx="1.00" fill="#8B5CF6" stroke="#5B21B6" stroke-width="1.15"/><rect x="14.50" y="39.25" width="2.20" height="1.18" rx="0.50" fill="rgba(255,255,255,0.28)"/>
<rect x="18.25" y="38.25" width="4.20" height="4.20" rx="1.00" fill="#8B5CF6" stroke="#5B21B6" stroke-width="1.15"/><rect x="19.25" y="39.25" width="2.20" height="1.18" rx="0.50" fill="rgba(255,255,255,0.28)"/>
<rect x="23.00" y="38.25" width="4.20" height="4.20" rx="1.00" fill="#8B5CF6" stroke="#5B21B6" stroke-width="1.15"/><rect x="24.00" y="39.25" width="2.20" height="1.18" rx="0.50" fill="rgba(255,255,255,0.28)"/>
<rect x="27.75" y="38.25" width="4.20" height="4.20" rx="1.00" fill="#8B5CF6" stroke="#5B21B6" stroke-width="1.15"/><rect x="28.75" y="39.25" width="2.20" height="1.18" rx="0.50" fill="rgba(255,255,255,0.28)"/>
<rect x="4.00" y="43.00" width="4.20" height="4.20" rx="1.00" fill="#8B5CF6" stroke="#5B21B6" stroke-width="1.15"/><rect x="5.00" y="44.00" width="2.20" height="1.18" rx="0.50" fill="rgba(255,255,255,0.28)"/>
<rect x="8.75" y="43.00" width="4.20" height="4.20" rx="1.00" fill="#8B5CF6" stroke="#5B21B6" stroke-width="1.15"/><rect x="9.75" y="44.00" width="2.20" height="1.18" rx="0.50" fill="rgba(255,255,255,0.28)"/>
<rect x="13.50" y="43.00" width="4.20" height="4.20" rx="1.00" fill="#8B5CF6" stroke="#5B21B6" stroke-width="1.15"/><rect x="14.50" y="44.00" width="2.20" height="1.18" rx="0.50" fill="rgba(255,255,255,0.28)"/>
<rect x="18.25" y="43.00" width="4.20" height="4.20" rx="1.00" fill="#8B5CF6" stroke="#5B21B6" stroke-width="1.15"/><rect x="19.25" y="44.00" width="2.20" height="1.18" rx="0.50" fill="rgba(255,255,255,0.28)"/>
<rect x="23.00" y="43.00" width="4.20" height="4.20" rx="1.00" fill="#8B5CF6" stroke="#5B21B6" stroke-width="1.15"/><rect x="24.00" y="44.00" width="2.20" height="1.18" rx="0.50" fill="rgba(255,255,255,0.28)"/>
<rect x="27.75" y="43.00" width="4.20" height="4.20" rx="1.00" fill="#8B5CF6" stroke="#5B21B6" stroke-width="1.15"/><rect x="28.75" y="44.00" width="2.20" height="1.18" rx="0.50" fill="rgba(255,255,255,0.28)"/>
<rect x="4.00" y="47.75" width="4.20" height="4.20" rx="1.00" fill="#8B5CF6" stroke="#5B21B6" stroke-width="1.15"/><rect x="5.00" y="48.75" width="2.20" height="1.18" rx="0.50" fill="rgba(255,255,255,0.28)"/>
<rect x="8.75" y="47.75" width="4.20" height="4.20" rx="1.00" fill="#8B5CF6" stroke="#5B21B6" stroke-width="1.15"/><rect x="9.75" y="48.75" width="2.20" height="1.18" rx="0.50" fill="rgba(255,255,255,0.28)"/>
<rect x="13.50" y="47.75" width="4.20" height="4.20" rx="1.00" fill="#8B5CF6" stroke="#5B21B6" stroke-width="1.15"/><rect x="14.50" y="48.75" width="2.20" height="1.18" rx="0.50" fill="rgba(255,255,255,0.28)"/>
<rect x="18.25" y="47.75" width="4.20" height="4.20" rx="1.00" fill="#8B5CF6" stroke="#5B21B6" stroke-width="1.15"/><rect x="19.25" y="48.75" width="2.20" height="1.18" rx="0.50" fill="rgba(255,255,255,0.28)"/>
<rect x="23.00" y="47.75" width="4.20" height="4.20" rx="1.00" fill="#8B5CF6" stroke="#5B21B6" stroke-width="1.15"/><rect x="24.00" y="48.75" width="2.20" height="1.18" rx="0.50" fill="rgba(255,255,255,0.28)"/>
<rect x="27.75" y="47.75" width="4.20" height="4.20" rx="1.00" fill="#8B5CF6" stroke="#5B21B6" stroke-width="1.15"/><rect x="28.75" y="48.75" width="2.20" height="1.18" rx="0.50" fill="rgba(255,255,255,0.28)"/><text x="9.0" y="8.2" text-anchor="middle" font-size="5.8" fill="#FDE047">★</text><text x="15.0" y="8.2" text-anchor="middle" font-size="5.8" fill="#FDE047">★</text><text x="21.0" y="8.2" text-anchor="middle" font-size="5.8" fill="#FDE047">★</text><text x="27.0" y="8.2" text-anchor="middle" font-size="5.8" fill="#FDE047">★</text><path d="M14.0 10.7 Q18.0 15.5 22.0 10.7" stroke="#3B0764" stroke-width="1.7" stroke-linecap="round" fill="none"/>
</svg>
